<?xml version="1.0" encoding="utf-8" standalone="no"?>
<!DOCTYPE svg PUBLIC "-//W3C//DTD SVG 1.1//EN"
  "http://www.w3.org/Graphics/SVG/1.1/DTD/svg11.dtd">
<!-- Created with matplotlib (https://matplotlib.org/) -->
<svg height="720pt" version="1.1" viewBox="0 0 720 720" width="720pt" xmlns="http://www.w3.org/2000/svg" xmlns:xlink="http://www.w3.org/1999/xlink">
 <defs>
  <style type="text/css">
*{stroke-linecap:butt;stroke-linejoin:round;}
  </style>
 </defs>
 <g id="figure_1">
  <g id="patch_1">
   <path d="M 0 720 
L 720 720 
L 720 0 
L 0 0 
z
" style="fill:#ffffff;"/>
  </g>
  <g id="axes_1">
   <g id="patch_2">
    <path d="M 90 338.4 
L 648 338.4 
L 648 86.4 
L 90 86.4 
z
" style="fill:#ffffff;"/>
   </g>
   <g id="matplotlib.axis_1">
    <g id="xtick_1">
     <g id="line2d_1">
      <defs>
       <path d="M 0 0 
L 0 3.5 
" id="mb802039893" style="stroke:#000000;stroke-width:0.8;"/>
      </defs>
      <g>
       <use style="stroke:#000000;stroke-width:0.8;" x="115.10363" xlink:href="#mb802039893" y="338.4"/>
      </g>
     </g>
     <g id="text_1">
      <!-- 0 -->
      <defs>
       <path d="M 31.78125 66.40625 
Q 24.171875 66.40625 20.328125 58.90625 
Q 16.5 51.421875 16.5 36.375 
Q 16.5 21.390625 20.328125 13.890625 
Q 24.171875 6.390625 31.78125 6.390625 
Q 39.453125 6.390625 43.28125 13.890625 
Q 47.125 21.390625 47.125 36.375 
Q 47.125 51.421875 43.28125 58.90625 
Q 39.453125 66.40625 31.78125 66.40625 
z
M 31.78125 74.21875 
Q 44.046875 74.21875 50.515625 64.515625 
Q 56.984375 54.828125 56.984375 36.375 
Q 56.984375 17.96875 50.515625 8.265625 
Q 44.046875 -1.421875 31.78125 -1.421875 
Q 19.53125 -1.421875 13.0625 8.265625 
Q 6.59375 17.96875 6.59375 36.375 
Q 6.59375 54.828125 13.0625 64.515625 
Q 19.53125 74.21875 31.78125 74.21875 
z
" id="DejaVuSans-48"/>
      </defs>
      <g transform="translate(111.92238 352.998437)scale(0.1 -0.1)">
       <use xlink:href="#DejaVuSans-48"/>
      </g>
     </g>
    </g>
    <g id="xtick_2">
     <g id="line2d_2">
      <g>
       <use style="stroke:#000000;stroke-width:0.8;" x="180.105261" xlink:href="#mb802039893" y="338.4"/>
      </g>
     </g>
     <g id="text_2">
      <!-- 250 -->
      <defs>
       <path d="M 19.1875 8.296875 
L 53.609375 8.296875 
L 53.609375 0 
L 7.328125 0 
L 7.328125 8.296875 
Q 12.9375 14.109375 22.625 23.890625 
Q 32.328125 33.6875 34.8125 36.53125 
Q 39.546875 41.84375 41.421875 45.53125 
Q 43.3125 49.21875 43.3125 52.78125 
Q 43.3125 58.59375 39.234375 62.25 
Q 35.15625 65.921875 28.609375 65.921875 
Q 23.96875 65.921875 18.8125 64.3125 
Q 13.671875 62.703125 7.8125 59.421875 
L 7.8125 69.390625 
Q 13.765625 71.78125 18.9375 73 
Q 24.125 74.21875 28.421875 74.21875 
Q 39.75 74.21875 46.484375 68.546875 
Q 53.21875 62.890625 53.21875 53.421875 
Q 53.21875 48.921875 51.53125 44.890625 
Q 49.859375 40.875 45.40625 35.40625 
Q 44.1875 33.984375 37.640625 27.21875 
Q 31.109375 20.453125 19.1875 8.296875 
z
" id="DejaVuSans-50"/>
       <path d="M 10.796875 72.90625 
L 49.515625 72.90625 
L 49.515625 64.59375 
L 19.828125 64.59375 
L 19.828125 46.734375 
Q 21.96875 47.46875 24.109375 47.828125 
Q 26.265625 48.1875 28.421875 48.1875 
Q 40.625 48.1875 47.75 41.5 
Q 54.890625 34.8125 54.890625 23.390625 
Q 54.890625 11.625 47.5625 5.09375 
Q 40.234375 -1.421875 26.90625 -1.421875 
Q 22.3125 -1.421875 17.546875 -0.640625 
Q 12.796875 0.140625 7.71875 1.703125 
L 7.71875 11.625 
Q 12.109375 9.234375 16.796875 8.0625 
Q 21.484375 6.890625 26.703125 6.890625 
Q 35.15625 6.890625 40.078125 11.328125 
Q 45.015625 15.765625 45.015625 23.390625 
Q 45.015625 31 40.078125 35.4375 
Q 35.15625 39.890625 26.703125 39.890625 
Q 22.75 39.890625 18.8125 39.015625 
Q 14.890625 38.140625 10.796875 36.28125 
z
" id="DejaVuSans-53"/>
      </defs>
      <g transform="translate(170.561511 352.998437)scale(0.1 -0.1)">
       <use xlink:href="#DejaVuSans-50"/>
       <use x="63.623047" xlink:href="#DejaVuSans-53"/>
       <use x="127.246094" xlink:href="#DejaVuSans-48"/>
      </g>
     </g>
    </g>
    <g id="xtick_3">
     <g id="line2d_3">
      <g>
       <use style="stroke:#000000;stroke-width:0.8;" x="245.106892" xlink:href="#mb802039893" y="338.4"/>
      </g>
     </g>
     <g id="text_3">
      <!-- 500 -->
      <g transform="translate(235.563142 352.998437)scale(0.1 -0.1)">
       <use xlink:href="#DejaVuSans-53"/>
       <use x="63.623047" xlink:href="#DejaVuSans-48"/>
       <use x="127.246094" xlink:href="#DejaVuSans-48"/>
      </g>
     </g>
    </g>
    <g id="xtick_4">
     <g id="line2d_4">
      <g>
       <use style="stroke:#000000;stroke-width:0.8;" x="310.108522" xlink:href="#mb802039893" y="338.4"/>
      </g>
     </g>
     <g id="text_4">
      <!-- 750 -->
      <defs>
       <path d="M 8.203125 72.90625 
L 55.078125 72.90625 
L 55.078125 68.703125 
L 28.609375 0 
L 18.3125 0 
L 43.21875 64.59375 
L 8.203125 64.59375 
z
" id="DejaVuSans-55"/>
      </defs>
      <g transform="translate(300.564772 352.998437)scale(0.1 -0.1)">
       <use xlink:href="#DejaVuSans-55"/>
       <use x="63.623047" xlink:href="#DejaVuSans-53"/>
       <use x="127.246094" xlink:href="#DejaVuSans-48"/>
      </g>
     </g>
    </g>
    <g id="xtick_5">
     <g id="line2d_5">
      <g>
       <use style="stroke:#000000;stroke-width:0.8;" x="375.110153" xlink:href="#mb802039893" y="338.4"/>
      </g>
     </g>
     <g id="text_5">
      <!-- 1000 -->
      <defs>
       <path d="M 12.40625 8.296875 
L 28.515625 8.296875 
L 28.515625 63.921875 
L 10.984375 60.40625 
L 10.984375 69.390625 
L 28.421875 72.90625 
L 38.28125 72.90625 
L 38.28125 8.296875 
L 54.390625 8.296875 
L 54.390625 0 
L 12.40625 0 
z
" id="DejaVuSans-49"/>
      </defs>
      <g transform="translate(362.385153 352.998437)scale(0.1 -0.1)">
       <use xlink:href="#DejaVuSans-49"/>
       <use x="63.623047" xlink:href="#DejaVuSans-48"/>
       <use x="127.246094" xlink:href="#DejaVuSans-48"/>
       <use x="190.869141" xlink:href="#DejaVuSans-48"/>
      </g>
     </g>
    </g>
    <g id="xtick_6">
     <g id="line2d_6">
      <g>
       <use style="stroke:#000000;stroke-width:0.8;" x="440.111784" xlink:href="#mb802039893" y="338.4"/>
      </g>
     </g>
     <g id="text_6">
      <!-- 1250 -->
      <g transform="translate(427.386784 352.998437)scale(0.1 -0.1)">
       <use xlink:href="#DejaVuSans-49"/>
       <use x="63.623047" xlink:href="#DejaVuSans-50"/>
       <use x="127.246094" xlink:href="#DejaVuSans-53"/>
       <use x="190.869141" xlink:href="#DejaVuSans-48"/>
      </g>
     </g>
    </g>
    <g id="xtick_7">
     <g id="line2d_7">
      <g>
       <use style="stroke:#000000;stroke-width:0.8;" x="505.113415" xlink:href="#mb802039893" y="338.4"/>
      </g>
     </g>
     <g id="text_7">
      <!-- 1500 -->
      <g transform="translate(492.388415 352.998437)scale(0.1 -0.1)">
       <use xlink:href="#DejaVuSans-49"/>
       <use x="63.623047" xlink:href="#DejaVuSans-53"/>
       <use x="127.246094" xlink:href="#DejaVuSans-48"/>
       <use x="190.869141" xlink:href="#DejaVuSans-48"/>
      </g>
     </g>
    </g>
    <g id="xtick_8">
     <g id="line2d_8">
      <g>
       <use style="stroke:#000000;stroke-width:0.8;" x="570.115046" xlink:href="#mb802039893" y="338.4"/>
      </g>
     </g>
     <g id="text_8">
      <!-- 1750 -->
      <g transform="translate(557.390046 352.998437)scale(0.1 -0.1)">
       <use xlink:href="#DejaVuSans-49"/>
       <use x="63.623047" xlink:href="#DejaVuSans-55"/>
       <use x="127.246094" xlink:href="#DejaVuSans-53"/>
       <use x="190.869141" xlink:href="#DejaVuSans-48"/>
      </g>
     </g>
    </g>
    <g id="xtick_9">
     <g id="line2d_9">
      <g>
       <use style="stroke:#000000;stroke-width:0.8;" x="635.116677" xlink:href="#mb802039893" y="338.4"/>
      </g>
     </g>
     <g id="text_9">
      <!-- 2000 -->
      <g transform="translate(622.391677 352.998437)scale(0.1 -0.1)">
       <use xlink:href="#DejaVuSans-50"/>
       <use x="63.623047" xlink:href="#DejaVuSans-48"/>
       <use x="127.246094" xlink:href="#DejaVuSans-48"/>
       <use x="190.869141" xlink:href="#DejaVuSans-48"/>
      </g>
     </g>
    </g>
    <g id="text_10">
     <!-- Number of iterations -->
     <defs>
      <path d="M 9.8125 72.90625 
L 23.09375 72.90625 
L 55.421875 11.921875 
L 55.421875 72.90625 
L 64.984375 72.90625 
L 64.984375 0 
L 51.703125 0 
L 19.390625 60.984375 
L 19.390625 0 
L 9.8125 0 
z
" id="DejaVuSans-78"/>
      <path d="M 8.5 21.578125 
L 8.5 54.6875 
L 17.484375 54.6875 
L 17.484375 21.921875 
Q 17.484375 14.15625 20.5 10.265625 
Q 23.53125 6.390625 29.59375 6.390625 
Q 36.859375 6.390625 41.078125 11.03125 
Q 45.3125 15.671875 45.3125 23.6875 
L 45.3125 54.6875 
L 54.296875 54.6875 
L 54.296875 0 
L 45.3125 0 
L 45.3125 8.40625 
Q 42.046875 3.421875 37.71875 1 
Q 33.40625 -1.421875 27.6875 -1.421875 
Q 18.265625 -1.421875 13.375 4.4375 
Q 8.5 10.296875 8.5 21.578125 
z
M 31.109375 56 
z
" id="DejaVuSans-117"/>
      <path d="M 52 44.1875 
Q 55.375 50.25 60.0625 53.125 
Q 64.75 56 71.09375 56 
Q 79.640625 56 84.28125 50.015625 
Q 88.921875 44.046875 88.921875 33.015625 
L 88.921875 0 
L 79.890625 0 
L 79.890625 32.71875 
Q 79.890625 40.578125 77.09375 44.375 
Q 74.3125 48.1875 68.609375 48.1875 
Q 61.625 48.1875 57.5625 43.546875 
Q 53.515625 38.921875 53.515625 30.90625 
L 53.515625 0 
L 44.484375 0 
L 44.484375 32.71875 
Q 44.484375 40.625 41.703125 44.40625 
Q 38.921875 48.1875 33.109375 48.1875 
Q 26.21875 48.1875 22.15625 43.53125 
Q 18.109375 38.875 18.109375 30.90625 
L 18.109375 0 
L 9.078125 0 
L 9.078125 54.6875 
L 18.109375 54.6875 
L 18.109375 46.1875 
Q 21.1875 51.21875 25.484375 53.609375 
Q 29.78125 56 35.6875 56 
Q 41.65625 56 45.828125 52.96875 
Q 50 49.953125 52 44.1875 
z
" id="DejaVuSans-109"/>
      <path d="M 48.6875 27.296875 
Q 48.6875 37.203125 44.609375 42.84375 
Q 40.53125 48.484375 33.40625 48.484375 
Q 26.265625 48.484375 22.1875 42.84375 
Q 18.109375 37.203125 18.109375 27.296875 
Q 18.109375 17.390625 22.1875 11.75 
Q 26.265625 6.109375 33.40625 6.109375 
Q 40.53125 6.109375 44.609375 11.75 
Q 48.6875 17.390625 48.6875 27.296875 
z
M 18.109375 46.390625 
Q 20.953125 51.265625 25.265625 53.625 
Q 29.59375 56 35.59375 56 
Q 45.5625 56 51.78125 48.09375 
Q 58.015625 40.1875 58.015625 27.296875 
Q 58.015625 14.40625 51.78125 6.484375 
Q 45.5625 -1.421875 35.59375 -1.421875 
Q 29.59375 -1.421875 25.265625 0.953125 
Q 20.953125 3.328125 18.109375 8.203125 
L 18.109375 0 
L 9.078125 0 
L 9.078125 75.984375 
L 18.109375 75.984375 
z
" id="DejaVuSans-98"/>
      <path d="M 56.203125 29.59375 
L 56.203125 25.203125 
L 14.890625 25.203125 
Q 15.484375 15.921875 20.484375 11.0625 
Q 25.484375 6.203125 34.421875 6.203125 
Q 39.59375 6.203125 44.453125 7.46875 
Q 49.3125 8.734375 54.109375 11.28125 
L 54.109375 2.78125 
Q 49.265625 0.734375 44.1875 -0.34375 
Q 39.109375 -1.421875 33.890625 -1.421875 
Q 20.796875 -1.421875 13.15625 6.1875 
Q 5.515625 13.8125 5.515625 26.8125 
Q 5.515625 40.234375 12.765625 48.109375 
Q 20.015625 56 32.328125 56 
Q 43.359375 56 49.78125 48.890625 
Q 56.203125 41.796875 56.203125 29.59375 
z
M 47.21875 32.234375 
Q 47.125 39.59375 43.09375 43.984375 
Q 39.0625 48.390625 32.421875 48.390625 
Q 24.90625 48.390625 20.390625 44.140625 
Q 15.875 39.890625 15.1875 32.171875 
z
" id="DejaVuSans-101"/>
      <path d="M 41.109375 46.296875 
Q 39.59375 47.171875 37.8125 47.578125 
Q 36.03125 48 33.890625 48 
Q 26.265625 48 22.1875 43.046875 
Q 18.109375 38.09375 18.109375 28.8125 
L 18.109375 0 
L 9.078125 0 
L 9.078125 54.6875 
L 18.109375 54.6875 
L 18.109375 46.1875 
Q 20.953125 51.171875 25.484375 53.578125 
Q 30.03125 56 36.53125 56 
Q 37.453125 56 38.578125 55.875 
Q 39.703125 55.765625 41.0625 55.515625 
z
" id="DejaVuSans-114"/>
      <path id="DejaVuSans-32"/>
      <path d="M 30.609375 48.390625 
Q 23.390625 48.390625 19.1875 42.75 
Q 14.984375 37.109375 14.984375 27.296875 
Q 14.984375 17.484375 19.15625 11.84375 
Q 23.34375 6.203125 30.609375 6.203125 
Q 37.796875 6.203125 41.984375 11.859375 
Q 46.1875 17.53125 46.1875 27.296875 
Q 46.1875 37.015625 41.984375 42.703125 
Q 37.796875 48.390625 30.609375 48.390625 
z
M 30.609375 56 
Q 42.328125 56 49.015625 48.375 
Q 55.71875 40.765625 55.71875 27.296875 
Q 55.71875 13.875 49.015625 6.21875 
Q 42.328125 -1.421875 30.609375 -1.421875 
Q 18.84375 -1.421875 12.171875 6.21875 
Q 5.515625 13.875 5.515625 27.296875 
Q 5.515625 40.765625 12.171875 48.375 
Q 18.84375 56 30.609375 56 
z
" id="DejaVuSans-111"/>
      <path d="M 37.109375 75.984375 
L 37.109375 68.5 
L 28.515625 68.5 
Q 23.6875 68.5 21.796875 66.546875 
Q 19.921875 64.59375 19.921875 59.515625 
L 19.921875 54.6875 
L 34.71875 54.6875 
L 34.71875 47.703125 
L 19.921875 47.703125 
L 19.921875 0 
L 10.890625 0 
L 10.890625 47.703125 
L 2.296875 47.703125 
L 2.296875 54.6875 
L 10.890625 54.6875 
L 10.890625 58.5 
Q 10.890625 67.625 15.140625 71.796875 
Q 19.390625 75.984375 28.609375 75.984375 
z
" id="DejaVuSans-102"/>
      <path d="M 9.421875 54.6875 
L 18.40625 54.6875 
L 18.40625 0 
L 9.421875 0 
z
M 9.421875 75.984375 
L 18.40625 75.984375 
L 18.40625 64.59375 
L 9.421875 64.59375 
z
" id="DejaVuSans-105"/>
      <path d="M 18.3125 70.21875 
L 18.3125 54.6875 
L 36.8125 54.6875 
L 36.8125 47.703125 
L 18.3125 47.703125 
L 18.3125 18.015625 
Q 18.3125 11.328125 20.140625 9.421875 
Q 21.96875 7.515625 27.59375 7.515625 
L 36.8125 7.515625 
L 36.8125 0 
L 27.59375 0 
Q 17.1875 0 13.234375 3.875 
Q 9.28125 7.765625 9.28125 18.015625 
L 9.28125 47.703125 
L 2.6875 47.703125 
L 2.6875 54.6875 
L 9.28125 54.6875 
L 9.28125 70.21875 
z
" id="DejaVuSans-116"/>
      <path d="M 34.28125 27.484375 
Q 23.390625 27.484375 19.1875 25 
Q 14.984375 22.515625 14.984375 16.5 
Q 14.984375 11.71875 18.140625 8.90625 
Q 21.296875 6.109375 26.703125 6.109375 
Q 34.1875 6.109375 38.703125 11.40625 
Q 43.21875 16.703125 43.21875 25.484375 
L 43.21875 27.484375 
z
M 52.203125 31.203125 
L 52.203125 0 
L 43.21875 0 
L 43.21875 8.296875 
Q 40.140625 3.328125 35.546875 0.953125 
Q 30.953125 -1.421875 24.3125 -1.421875 
Q 15.921875 -1.421875 10.953125 3.296875 
Q 6 8.015625 6 15.921875 
Q 6 25.140625 12.171875 29.828125 
Q 18.359375 34.515625 30.609375 34.515625 
L 43.21875 34.515625 
L 43.21875 35.40625 
Q 43.21875 41.609375 39.140625 45 
Q 35.0625 48.390625 27.6875 48.390625 
Q 23 48.390625 18.546875 47.265625 
Q 14.109375 46.140625 10.015625 43.890625 
L 10.015625 52.203125 
Q 14.9375 54.109375 19.578125 55.046875 
Q 24.21875 56 28.609375 56 
Q 40.484375 56 46.34375 49.84375 
Q 52.203125 43.703125 52.203125 31.203125 
z
" id="DejaVuSans-97"/>
      <path d="M 54.890625 33.015625 
L 54.890625 0 
L 45.90625 0 
L 45.90625 32.71875 
Q 45.90625 40.484375 42.875 44.328125 
Q 39.84375 48.1875 33.796875 48.1875 
Q 26.515625 48.1875 22.3125 43.546875 
Q 18.109375 38.921875 18.109375 30.90625 
L 18.109375 0 
L 9.078125 0 
L 9.078125 54.6875 
L 18.109375 54.6875 
L 18.109375 46.1875 
Q 21.34375 51.125 25.703125 53.5625 
Q 30.078125 56 35.796875 56 
Q 45.21875 56 50.046875 50.171875 
Q 54.890625 44.34375 54.890625 33.015625 
z
" id="DejaVuSans-110"/>
      <path d="M 44.28125 53.078125 
L 44.28125 44.578125 
Q 40.484375 46.53125 36.375 47.5 
Q 32.28125 48.484375 27.875 48.484375 
Q 21.1875 48.484375 17.84375 46.4375 
Q 14.5 44.390625 14.5 40.28125 
Q 14.5 37.15625 16.890625 35.375 
Q 19.28125 33.59375 26.515625 31.984375 
L 29.59375 31.296875 
Q 39.15625 29.25 43.1875 25.515625 
Q 47.21875 21.78125 47.21875 15.09375 
Q 47.21875 7.46875 41.1875 3.015625 
Q 35.15625 -1.421875 24.609375 -1.421875 
Q 20.21875 -1.421875 15.453125 -0.5625 
Q 10.6875 0.296875 5.421875 2 
L 5.421875 11.28125 
Q 10.40625 8.6875 15.234375 7.390625 
Q 20.0625 6.109375 24.8125 6.109375 
Q 31.15625 6.109375 34.5625 8.28125 
Q 37.984375 10.453125 37.984375 14.40625 
Q 37.984375 18.0625 35.515625 20.015625 
Q 33.0625 21.96875 24.703125 23.78125 
L 21.578125 24.515625 
Q 13.234375 26.265625 9.515625 29.90625 
Q 5.8125 33.546875 5.8125 39.890625 
Q 5.8125 47.609375 11.28125 51.796875 
Q 16.75 56 26.8125 56 
Q 31.78125 56 36.171875 55.265625 
Q 40.578125 54.546875 44.28125 53.078125 
z
" id="DejaVuSans-115"/>
     </defs>
     <g transform="translate(317.189062 366.676562)scale(0.1 -0.1)">
      <use xlink:href="#DejaVuSans-78"/>
      <use x="74.804688" xlink:href="#DejaVuSans-117"/>
      <use x="138.183594" xlink:href="#DejaVuSans-109"/>
      <use x="235.595703" xlink:href="#DejaVuSans-98"/>
      <use x="299.072266" xlink:href="#DejaVuSans-101"/>
      <use x="360.595703" xlink:href="#DejaVuSans-114"/>
      <use x="401.708984" xlink:href="#DejaVuSans-32"/>
      <use x="433.496094" xlink:href="#DejaVuSans-111"/>
      <use x="494.677734" xlink:href="#DejaVuSans-102"/>
      <use x="529.882812" xlink:href="#DejaVuSans-32"/>
      <use x="561.669922" xlink:href="#DejaVuSans-105"/>
      <use x="589.453125" xlink:href="#DejaVuSans-116"/>
      <use x="628.662109" xlink:href="#DejaVuSans-101"/>
      <use x="690.185547" xlink:href="#DejaVuSans-114"/>
      <use x="731.298828" xlink:href="#DejaVuSans-97"/>
      <use x="792.578125" xlink:href="#DejaVuSans-116"/>
      <use x="831.787109" xlink:href="#DejaVuSans-105"/>
      <use x="859.570312" xlink:href="#DejaVuSans-111"/>
      <use x="920.751953" xlink:href="#DejaVuSans-110"/>
      <use x="984.130859" xlink:href="#DejaVuSans-115"/>
     </g>
    </g>
   </g>
   <g id="matplotlib.axis_2">
    <g id="ytick_1">
     <g id="line2d_10">
      <defs>
       <path d="M 0 0 
L -3.5 0 
" id="m7dfeb8075e" style="stroke:#000000;stroke-width:0.8;"/>
      </defs>
      <g>
       <use style="stroke:#000000;stroke-width:0.8;" x="90" xlink:href="#m7dfeb8075e" y="338.4"/>
      </g>
     </g>
     <g id="text_11">
      <!-- 0.00 -->
      <defs>
       <path d="M 10.6875 12.40625 
L 21 12.40625 
L 21 0 
L 10.6875 0 
z
" id="DejaVuSans-46"/>
      </defs>
      <g transform="translate(60.734375 342.199219)scale(0.1 -0.1)">
       <use xlink:href="#DejaVuSans-48"/>
       <use x="63.623047" xlink:href="#DejaVuSans-46"/>
       <use x="95.410156" xlink:href="#DejaVuSans-48"/>
       <use x="159.033203" xlink:href="#DejaVuSans-48"/>
      </g>
     </g>
    </g>
    <g id="ytick_2">
     <g id="line2d_11">
      <g>
       <use style="stroke:#000000;stroke-width:0.8;" x="90" xlink:href="#m7dfeb8075e" y="306.9"/>
      </g>
     </g>
     <g id="text_12">
      <!-- 0.25 -->
      <g transform="translate(60.734375 310.699219)scale(0.1 -0.1)">
       <use xlink:href="#DejaVuSans-48"/>
       <use x="63.623047" xlink:href="#DejaVuSans-46"/>
       <use x="95.410156" xlink:href="#DejaVuSans-50"/>
       <use x="159.033203" xlink:href="#DejaVuSans-53"/>
      </g>
     </g>
    </g>
    <g id="ytick_3">
     <g id="line2d_12">
      <g>
       <use style="stroke:#000000;stroke-width:0.8;" x="90" xlink:href="#m7dfeb8075e" y="275.4"/>
      </g>
     </g>
     <g id="text_13">
      <!-- 0.50 -->
      <g transform="translate(60.734375 279.199219)scale(0.1 -0.1)">
       <use xlink:href="#DejaVuSans-48"/>
       <use x="63.623047" xlink:href="#DejaVuSans-46"/>
       <use x="95.410156" xlink:href="#DejaVuSans-53"/>
       <use x="159.033203" xlink:href="#DejaVuSans-48"/>
      </g>
     </g>
    </g>
    <g id="ytick_4">
     <g id="line2d_13">
      <g>
       <use style="stroke:#000000;stroke-width:0.8;" x="90" xlink:href="#m7dfeb8075e" y="243.9"/>
      </g>
     </g>
     <g id="text_14">
      <!-- 0.75 -->
      <g transform="translate(60.734375 247.699219)scale(0.1 -0.1)">
       <use xlink:href="#DejaVuSans-48"/>
       <use x="63.623047" xlink:href="#DejaVuSans-46"/>
       <use x="95.410156" xlink:href="#DejaVuSans-55"/>
       <use x="159.033203" xlink:href="#DejaVuSans-53"/>
      </g>
     </g>
    </g>
    <g id="ytick_5">
     <g id="line2d_14">
      <g>
       <use style="stroke:#000000;stroke-width:0.8;" x="90" xlink:href="#m7dfeb8075e" y="212.4"/>
      </g>
     </g>
     <g id="text_15">
      <!-- 1.00 -->
      <g transform="translate(60.734375 216.199219)scale(0.1 -0.1)">
       <use xlink:href="#DejaVuSans-49"/>
       <use x="63.623047" xlink:href="#DejaVuSans-46"/>
       <use x="95.410156" xlink:href="#DejaVuSans-48"/>
       <use x="159.033203" xlink:href="#DejaVuSans-48"/>
      </g>
     </g>
    </g>
    <g id="ytick_6">
     <g id="line2d_15">
      <g>
       <use style="stroke:#000000;stroke-width:0.8;" x="90" xlink:href="#m7dfeb8075e" y="180.9"/>
      </g>
     </g>
     <g id="text_16">
      <!-- 1.25 -->
      <g transform="translate(60.734375 184.699219)scale(0.1 -0.1)">
       <use xlink:href="#DejaVuSans-49"/>
       <use x="63.623047" xlink:href="#DejaVuSans-46"/>
       <use x="95.410156" xlink:href="#DejaVuSans-50"/>
       <use x="159.033203" xlink:href="#DejaVuSans-53"/>
      </g>
     </g>
    </g>
    <g id="ytick_7">
     <g id="line2d_16">
      <g>
       <use style="stroke:#000000;stroke-width:0.8;" x="90" xlink:href="#m7dfeb8075e" y="149.4"/>
      </g>
     </g>
     <g id="text_17">
      <!-- 1.50 -->
      <g transform="translate(60.734375 153.199219)scale(0.1 -0.1)">
       <use xlink:href="#DejaVuSans-49"/>
       <use x="63.623047" xlink:href="#DejaVuSans-46"/>
       <use x="95.410156" xlink:href="#DejaVuSans-53"/>
       <use x="159.033203" xlink:href="#DejaVuSans-48"/>
      </g>
     </g>
    </g>
    <g id="ytick_8">
     <g id="line2d_17">
      <g>
       <use style="stroke:#000000;stroke-width:0.8;" x="90" xlink:href="#m7dfeb8075e" y="117.9"/>
      </g>
     </g>
     <g id="text_18">
      <!-- 1.75 -->
      <g transform="translate(60.734375 121.699219)scale(0.1 -0.1)">
       <use xlink:href="#DejaVuSans-49"/>
       <use x="63.623047" xlink:href="#DejaVuSans-46"/>
       <use x="95.410156" xlink:href="#DejaVuSans-55"/>
       <use x="159.033203" xlink:href="#DejaVuSans-53"/>
      </g>
     </g>
    </g>
    <g id="ytick_9">
     <g id="line2d_18">
      <g>
       <use style="stroke:#000000;stroke-width:0.8;" x="90" xlink:href="#m7dfeb8075e" y="86.4"/>
      </g>
     </g>
     <g id="text_19">
      <!-- 2.00 -->
      <g transform="translate(60.734375 90.199219)scale(0.1 -0.1)">
       <use xlink:href="#DejaVuSans-50"/>
       <use x="63.623047" xlink:href="#DejaVuSans-46"/>
       <use x="95.410156" xlink:href="#DejaVuSans-48"/>
       <use x="159.033203" xlink:href="#DejaVuSans-48"/>
      </g>
     </g>
    </g>
    <g id="text_20">
     <!-- loss -->
     <defs>
      <path d="M 9.421875 75.984375 
L 18.40625 75.984375 
L 18.40625 0 
L 9.421875 0 
z
" id="DejaVuSans-108"/>
     </defs>
     <g transform="translate(54.654688 222.057812)rotate(-90)scale(0.1 -0.1)">
      <use xlink:href="#DejaVuSans-108"/>
      <use x="27.783203" xlink:href="#DejaVuSans-111"/>
      <use x="88.964844" xlink:href="#DejaVuSans-115"/>
      <use x="141.064453" xlink:href="#DejaVuSans-115"/>
     </g>
    </g>
   </g>
   <g id="line2d_19">
    <path clip-path="url(#p8ed4e8fa5b)" d="M 120.414461 -1 
L 120.563767 135.457056 
L 120.668406 -1 
M 121.082231 -1 
L 121.08378 0.213955 
L 121.343786 27.209857 
L 121.603793 114.70374 
L 121.863799 63.891434 
L 122.123806 58.510056 
L 122.383812 159.944631 
L 122.643819 121.431064 
L 122.903826 203.660938 
L 123.423839 199.079245 
L 123.683845 193.163126 
L 123.943852 197.686421 
L 124.203858 182.413873 
L 124.463865 187.249471 
L 124.983878 205.244746 
L 125.243884 182.925061 
L 125.503891 196.567899 
L 125.763897 197.322537 
L 126.023904 211.120024 
L 126.28391 242.231297 
L 126.543917 192.887337 
L 126.803923 269.816388 
L 127.06393 242.774719 
L 127.323936 239.772042 
L 127.583943 245.830628 
L 127.843949 262.481475 
L 128.363963 218.672154 
L 128.623969 223.077583 
L 128.883976 237.177348 
L 129.143982 157.750785 
L 129.403989 256.530239 
L 129.663995 240.852847 
L 129.924002 287.733917 
L 130.184008 235.752561 
L 130.444015 222.91863 
L 130.704021 217.142765 
L 130.964028 265.801458 
L 131.224034 232.013217 
L 131.484041 228.056138 
L 131.744047 219.559122 
L 132.004054 285.46571 
L 132.26406 244.542226 
L 132.524067 142.320839 
L 132.784073 238.292332 
L 133.04408 174.376668 
L 133.304086 206.598607 
L 133.564093 266.507475 
L 133.8241 276.056007 
L 134.084106 240.811211 
L 134.344113 260.236606 
L 134.604119 301.212923 
L 134.864126 252.584237 
L 135.124132 290.568438 
L 135.384139 262.814905 
L 135.644145 295.006337 
L 135.904152 269.768901 
L 136.164158 258.14951 
L 136.424165 283.296787 
L 136.684171 255.110791 
L 136.944178 277.141176 
L 137.204184 258.574962 
L 137.464191 305.268138 
L 137.724197 303.629127 
L 137.984204 240.057947 
L 138.24421 281.481192 
L 138.504217 271.681505 
L 138.764223 208.555656 
L 139.02423 295.531566 
L 139.284237 252.283815 
L 139.544243 287.295623 
L 139.80425 278.393549 
L 140.064256 306.487165 
L 140.324263 278.150076 
L 140.584269 300.669603 
L 140.844276 279.167635 
L 141.104282 284.362565 
L 141.364289 275.999531 
L 141.624295 263.56156 
L 141.884302 298.201324 
L 142.144308 289.894263 
L 142.404315 274.427476 
L 142.664321 308.249776 
L 142.924328 271.93809 
L 143.444341 294.874357 
L 143.704347 280.373275 
L 143.964354 302.423411 
L 144.22436 299.991512 
L 144.484367 301.667233 
L 144.744374 285.907207 
L 145.00438 253.673778 
L 145.264387 296.421279 
L 145.524393 269.631412 
L 145.7844 282.012943 
L 146.304413 297.721461 
L 146.564419 294.103643 
L 146.824426 312.572067 
L 147.084432 310.59098 
L 147.604445 271.619478 
L 147.864452 300.117687 
L 148.124458 290.602511 
L 148.384465 312.886175 
L 148.644471 267.931646 
L 148.904478 313.279852 
L 149.164484 272.114091 
L 149.424491 305.635653 
L 149.684497 279.982775 
L 149.944504 301.983465 
L 150.204511 292.490384 
L 150.464517 315.152494 
L 150.98453 302.130807 
L 151.244537 279.431865 
L 151.504543 299.760405 
L 151.76455 291.648646 
L 152.024556 293.693628 
L 152.284563 286.439011 
L 152.544569 292.778212 
L 152.804576 305.105111 
L 153.064582 306.946574 
L 153.324589 301.23806 
L 153.584595 284.120027 
L 153.844602 293.783394 
L 154.104608 288.172625 
L 154.364615 295.384272 
L 154.624621 312.515602 
L 154.884628 287.835935 
L 155.144634 306.552564 
L 155.404641 299.384929 
L 155.664648 296.576451 
L 155.924654 311.358369 
L 156.184661 315.25544 
L 156.704674 268.204244 
L 156.96468 296.24242 
L 157.224687 310.564054 
L 157.484693 299.375309 
L 157.7447 313.460847 
L 158.004706 291.001467 
L 158.264713 306.288851 
L 158.524719 299.430959 
L 158.784726 268.834498 
L 159.044732 308.492328 
L 159.304739 284.065789 
L 159.564745 290.265788 
L 159.824752 291.48975 
L 160.084758 288.377908 
L 160.344765 271.940298 
L 160.604771 289.664219 
L 160.864778 267.297306 
L 161.124784 291.799331 
L 161.384791 301.588977 
L 161.644798 285.228264 
L 161.904804 298.710826 
L 162.164811 292.970736 
L 162.424817 292.758141 
L 162.684824 294.242965 
L 162.94483 299.312024 
L 163.204837 307.067143 
L 163.464843 278.805152 
L 163.72485 310.34863 
L 163.984856 308.454854 
L 164.504869 299.93932 
L 164.764876 304.660759 
L 165.024882 275.190271 
L 165.284889 281.021088 
L 165.544895 308.350934 
L 165.804902 284.653111 
L 166.584921 303.820426 
L 166.844928 303.795808 
L 167.104935 291.43185 
L 167.364941 302.730758 
L 167.884954 291.001403 
L 168.144961 310.744302 
L 168.404967 298.481792 
L 168.664974 314.497686 
L 168.92498 271.813361 
L 169.184987 302.050174 
L 169.444993 277.723659 
L 169.965006 304.42236 
L 170.225013 300.228425 
L 170.745026 315.324216 
L 171.005032 308.835388 
L 171.265039 295.86052 
L 171.525045 310.696293 
L 171.785052 312.825311 
L 172.045058 312.435699 
L 172.305065 306.489245 
L 172.565072 311.867809 
L 172.825078 288.490884 
L 173.085085 294.378114 
L 173.345091 317.305003 
L 173.865104 306.784989 
L 174.125111 305.691923 
L 174.385117 278.741492 
L 174.645124 302.780262 
L 174.90513 287.980003 
L 175.165137 309.626152 
L 175.425143 272.232264 
L 175.68515 318.843436 
L 175.945156 315.931462 
L 176.205163 311.048532 
L 176.465169 270.317152 
L 176.725176 302.425428 
L 176.985182 311.547986 
L 177.245189 307.567242 
L 177.505195 298.460459 
L 177.765202 300.757074 
L 178.025209 278.483798 
L 178.285215 305.187107 
L 178.805228 297.748205 
L 179.325241 313.57159 
L 179.845254 302.356098 
L 180.105261 286.245969 
L 180.365267 311.873397 
L 180.625274 315.880347 
L 181.145287 296.582797 
L 181.405293 297.160326 
L 181.6653 291.808478 
L 182.185313 307.580676 
L 182.445319 304.198151 
L 182.705326 293.446878 
L 182.965332 313.443035 
L 183.225339 310.310127 
L 183.485346 287.017513 
L 183.745352 300.30819 
L 184.005359 298.624748 
L 184.525372 323.120736 
L 184.785378 301.8342 
L 185.045385 304.116203 
L 185.305391 301.612375 
L 185.565398 322.068531 
L 185.825404 307.218304 
L 186.085411 305.955609 
L 186.345417 300.041166 
L 186.605424 315.760646 
L 186.86543 290.211599 
L 187.125437 289.82161 
L 187.385443 314.093918 
L 187.64545 313.472373 
L 187.905456 310.507701 
L 188.165463 314.10018 
L 188.425469 298.973382 
L 188.685476 314.439905 
L 188.945483 312.485663 
L 189.205489 311.569443 
L 189.725502 321.281535 
L 189.985509 298.835056 
L 190.505522 321.621367 
L 190.765528 324.236331 
L 191.285541 296.292303 
L 191.545548 298.301536 
L 191.805554 302.293418 
L 192.065561 312.104217 
L 192.325567 295.302494 
L 192.585574 310.155464 
L 192.84558 295.533658 
L 193.105587 313.626449 
L 193.365593 319.402228 
L 193.6256 319.724693 
L 193.885606 291.102348 
L 194.145613 281.682653 
L 194.405619 319.817184 
L 194.665626 318.54025 
L 195.185639 303.16223 
L 195.705652 317.705195 
L 195.965659 315.44106 
L 196.225665 275.673018 
L 196.485672 299.133503 
L 196.745678 311.558943 
L 197.005685 317.885953 
L 197.265691 314.245697 
L 197.525698 304.741381 
L 197.785704 299.62031 
L 198.045711 319.445259 
L 198.565724 284.12308 
L 198.82573 311.200201 
L 199.085737 310.548839 
L 199.345743 315.537385 
L 199.60575 293.117635 
L 199.865756 315.628016 
L 200.125763 310.815582 
L 200.38577 319.298276 
L 200.645776 302.591114 
L 200.905783 301.214733 
L 201.165789 319.999629 
L 201.945809 305.428762 
L 202.205815 313.257755 
L 202.465822 313.443653 
L 202.725828 307.168936 
L 203.245841 321.018153 
L 203.505848 319.266983 
L 204.025861 304.21073 
L 204.285867 314.907279 
L 204.545874 317.544587 
L 204.80588 323.816106 
L 205.065887 316.337449 
L 205.325893 282.572227 
L 205.5859 310.718111 
L 205.845907 297.102595 
L 206.105913 297.595785 
L 206.36592 318.400544 
L 206.625926 318.601302 
L 206.885933 303.230445 
L 207.145939 316.164998 
L 207.665952 290.766462 
L 207.925959 301.643069 
L 208.185965 295.44423 
L 208.445972 271.021502 
L 208.705978 294.897282 
L 208.965985 273.78917 
L 209.225991 319.843346 
L 209.485998 305.035893 
L 209.746004 321.101558 
L 210.006011 293.682089 
L 210.266017 323.391139 
L 210.526024 304.984366 
L 210.78603 301.147266 
L 211.046037 279.320106 
L 211.306044 298.699978 
L 211.56605 270.166738 
L 211.826057 320.113628 
L 212.086063 318.732179 
L 212.34607 326.703358 
L 212.606076 304.230745 
L 212.866083 315.36236 
L 213.126089 303.735193 
L 213.386096 309.541871 
L 213.646102 322.223121 
L 213.906109 317.561455 
L 214.166115 276.907452 
L 214.426122 317.359745 
L 214.686128 307.934688 
L 214.946135 322.710523 
L 215.206141 302.670444 
L 215.466148 317.768952 
L 215.726154 322.212909 
L 215.986161 322.177786 
L 216.246167 304.302985 
L 216.506174 314.674733 
L 216.766181 314.441839 
L 217.026187 317.538735 
L 217.286194 326.909276 
L 217.5462 316.541752 
L 217.806207 321.210042 
L 218.066213 291.80915 
L 218.32622 322.804285 
L 218.586226 310.721854 
L 218.846233 311.798603 
L 219.106239 304.849948 
L 219.366246 316.146279 
L 219.626252 310.873765 
L 219.886259 324.013168 
L 220.146265 317.411751 
L 220.406272 317.876036 
L 220.666278 325.307765 
L 220.926285 326.151304 
L 221.186291 306.439321 
L 221.446298 324.037744 
L 221.706304 319.685704 
L 221.966311 323.805541 
L 222.226318 315.021405 
L 222.486324 325.101381 
L 222.746331 302.870305 
L 223.006337 317.549384 
L 223.266344 310.942342 
L 223.786357 320.843089 
L 224.046363 312.556026 
L 224.30637 298.831936 
L 224.566376 313.159231 
L 224.826383 318.50398 
L 225.086389 310.357137 
L 225.346396 315.067785 
L 225.606402 304.648788 
L 225.866409 306.231834 
L 226.386422 319.101004 
L 226.646428 320.350637 
L 226.906435 328.874455 
L 227.426448 291.549951 
L 227.686454 329.331877 
L 227.946461 305.414166 
L 228.206468 317.543251 
L 228.466474 319.10539 
L 228.726481 290.94798 
L 228.986487 312.867651 
L 229.246494 314.757133 
L 229.5065 280.654005 
L 229.766507 308.922427 
L 230.026513 316.570989 
L 230.28652 308.654484 
L 230.546526 312.134083 
L 230.806533 299.343804 
L 231.066539 322.549947 
L 231.326546 308.065817 
L 231.846559 316.331116 
L 232.106565 314.048938 
L 232.366572 315.851362 
L 232.626578 315.536473 
L 232.886585 327.318129 
L 233.146591 323.541742 
L 233.406598 322.465965 
L 233.666605 292.154333 
L 234.186618 298.521957 
L 234.446624 304.952218 
L 234.706631 323.527855 
L 234.966637 323.878908 
L 235.226644 319.697746 
L 235.48665 305.555797 
L 235.746657 307.243811 
L 236.006663 313.706845 
L 236.26667 317.258761 
L 236.526676 307.944113 
L 236.786683 315.586797 
L 237.046689 329.371865 
L 237.306696 309.31027 
L 237.566702 330.01771 
L 237.826709 327.158914 
L 238.346722 295.415244 
L 238.606728 293.593732 
L 238.866735 329.301204 
L 239.126742 318.542513 
L 239.386748 314.760312 
L 239.646755 328.192095 
L 239.906761 319.73074 
L 240.166768 306.013915 
L 240.426774 299.849611 
L 240.686781 314.88125 
L 240.946787 291.975009 
L 241.206794 317.049548 
L 241.4668 322.943088 
L 241.986813 303.263531 
L 242.506826 314.169121 
L 242.766833 306.855615 
L 243.026839 318.288357 
L 243.286846 318.276222 
L 243.546852 313.951264 
L 243.806859 324.857615 
L 244.326872 290.036611 
L 244.586879 312.889491 
L 244.846885 316.78214 
L 245.106892 310.020583 
L 245.366898 286.255226 
L 245.626905 328.71363 
L 246.146918 303.680864 
L 246.406924 305.145429 
L 246.666931 315.244193 
L 246.926937 310.927504 
L 247.186944 316.082238 
L 247.44695 324.808168 
L 247.706957 317.431195 
L 248.22697 326.052622 
L 248.486976 325.533089 
L 248.746983 304.944032 
L 249.006989 325.345088 
L 249.266996 321.123806 
L 249.527002 326.022437 
L 249.787009 319.363836 
L 250.047016 324.760277 
L 250.307022 315.392176 
L 250.567029 323.007581 
L 250.827035 312.92796 
L 251.087042 314.882463 
L 251.347048 318.28413 
L 251.607055 323.706429 
L 251.867061 326.748339 
L 252.127068 318.884378 
L 252.387074 318.581706 
L 252.647081 314.235175 
L 252.907087 313.110133 
L 253.167094 324.183972 
L 253.4271 324.229333 
L 253.687107 329.835214 
L 253.947113 326.335355 
L 254.20712 324.68544 
L 254.467126 307.259849 
L 254.727133 310.254518 
L 254.987139 318.948391 
L 255.507153 326.633545 
L 255.767159 325.864166 
L 256.287172 307.356968 
L 256.547179 324.215892 
L 256.807185 318.779874 
L 257.067192 308.033546 
L 257.587205 323.291137 
L 257.847211 323.638627 
L 258.107218 325.231581 
L 258.627231 311.060776 
L 258.887237 325.282066 
L 259.147244 312.342342 
L 259.40725 329.576203 
L 259.667257 312.674901 
L 259.927263 323.733448 
L 260.18727 329.281713 
L 260.447276 321.453194 
L 260.707283 321.701464 
L 260.96729 269.553396 
L 261.487303 316.687743 
L 261.747309 322.569958 
L 262.007316 317.447543 
L 262.267322 315.303495 
L 262.787335 324.796256 
L 263.047342 319.463631 
L 263.307348 327.139735 
L 263.567355 325.01157 
L 263.827361 317.100227 
L 264.347374 329.926647 
L 264.607381 321.507881 
L 264.867387 318.055701 
L 265.127394 318.148603 
L 265.3874 312.764903 
L 265.647407 314.809765 
L 265.907413 312.825461 
L 266.16742 324.701033 
L 266.427426 317.047928 
L 266.687433 325.389969 
L 266.94744 307.663365 
L 267.207446 322.364239 
L 267.467453 323.125211 
L 267.727459 324.572284 
L 267.987466 311.472467 
L 268.247472 323.941514 
L 268.507479 318.10024 
L 268.767485 315.437725 
L 269.027492 324.605504 
L 269.287498 309.289144 
L 269.547505 327.715141 
L 269.807511 325.299744 
L 270.067518 313.855678 
L 270.327524 307.573746 
L 270.587531 311.240534 
L 270.847537 323.926595 
L 271.107544 323.578606 
L 271.36755 324.920015 
L 271.627557 310.572295 
L 271.887563 322.674172 
L 272.14757 327.676357 
L 272.407577 324.395345 
L 272.667583 330.700553 
L 272.92759 324.48542 
L 273.187596 326.408355 
L 273.447603 331.289011 
L 273.707609 298.663133 
L 273.967616 322.707322 
L 274.227622 318.301644 
L 274.487629 325.724116 
L 274.747635 316.53624 
L 275.007642 323.908708 
L 275.267648 318.31048 
L 275.527655 305.875093 
L 275.787661 303.509174 
L 276.307674 328.71447 
L 276.567681 324.7584 
L 276.827687 317.774925 
L 277.3477 328.317097 
L 277.607707 290.160323 
L 277.867714 320.129133 
L 278.12772 312.096421 
L 278.647733 318.921351 
L 278.90774 309.948459 
L 279.167746 319.609864 
L 279.427753 319.583792 
L 279.687759 317.435866 
L 279.947766 307.96583 
L 280.207772 316.731137 
L 280.467779 317.681485 
L 280.727785 322.634518 
L 281.247798 296.595113 
L 281.507805 324.01562 
L 281.767811 319.657908 
L 282.027818 327.787506 
L 282.287824 315.786844 
L 282.547831 329.374466 
L 282.807837 324.821474 
L 283.067844 317.707904 
L 283.327851 318.706732 
L 283.587857 319.025036 
L 283.847864 319.048969 
L 284.10787 330.085204 
L 284.367877 322.028483 
L 284.627883 325.390121 
L 284.88789 306.971401 
L 285.147896 322.611319 
L 285.407903 328.041324 
L 285.667909 329.813771 
L 285.927916 323.87487 
L 286.187922 321.168764 
L 286.447929 327.598955 
L 286.707935 324.1125 
L 286.967942 305.421027 
L 287.227948 319.135218 
L 287.487955 317.818219 
L 287.747961 326.275311 
L 288.267974 315.229772 
L 288.527981 319.178162 
L 288.787988 325.998128 
L 289.047994 314.311993 
L 289.308001 328.611433 
L 289.568007 321.28377 
L 289.828014 318.484004 
L 290.08802 326.438111 
L 290.348027 306.375143 
L 290.608033 316.969502 
L 290.86804 317.409216 
L 291.128046 323.493579 
L 291.388053 322.302615 
L 291.648059 323.667853 
L 291.908066 326.381541 
L 292.168072 319.908474 
L 292.428079 321.046251 
L 292.688085 324.869304 
L 292.948092 322.075841 
L 293.208098 320.70777 
L 293.468105 323.28609 
L 293.728111 317.704457 
L 293.988118 332.754379 
L 294.248125 318.75123 
L 294.508131 321.58232 
L 294.768138 326.950087 
L 295.288151 307.625563 
L 295.548157 321.618416 
L 295.808164 322.612526 
L 296.06817 308.748516 
L 296.328177 326.989795 
L 296.588183 304.661079 
L 296.84819 321.762319 
L 297.108196 318.192701 
L 297.368203 327.151637 
L 297.628209 321.971643 
L 297.888216 326.97616 
L 298.148222 304.100282 
L 298.408229 325.135739 
L 298.668235 312.797989 
L 298.928242 315.395135 
L 299.188248 312.513439 
L 299.448255 327.362193 
L 299.708261 321.667703 
L 299.968268 321.989564 
L 300.228275 323.183147 
L 300.488281 333.893444 
L 300.748288 331.570922 
L 301.008294 319.227915 
L 301.528307 327.083268 
L 301.788314 308.667873 
L 302.04832 310.635532 
L 302.308327 320.135736 
L 302.568333 319.913424 
L 302.82834 324.132297 
L 303.088346 321.328033 
L 303.348353 325.122599 
L 303.608359 325.7672 
L 303.868366 332.356252 
L 304.388379 320.503871 
L 304.648385 324.6738 
L 304.908392 311.808599 
L 305.168398 309.363726 
L 305.428405 327.62221 
L 305.688412 316.676836 
L 305.948418 317.771964 
L 306.208425 276.691673 
L 306.468431 314.847702 
L 306.728438 324.645493 
L 306.988444 324.892001 
L 307.248451 327.318276 
L 307.508457 321.33218 
L 307.768464 326.174941 
L 308.02847 322.125472 
L 308.288477 324.37525 
L 308.548483 309.670744 
L 308.80849 307.185896 
L 309.068496 300.377697 
L 309.328503 323.763828 
L 309.588509 320.391597 
L 309.848516 323.602824 
L 310.108522 318.522214 
L 310.368529 322.885049 
L 310.628535 311.782272 
L 311.148549 327.50337 
L 311.408555 317.185199 
L 311.668562 321.379958 
L 311.928568 287.401516 
L 312.188575 317.709676 
L 312.448581 319.208287 
L 312.708588 289.936313 
L 312.968594 317.035586 
L 313.228601 315.562133 
L 313.488607 311.782161 
L 313.748614 327.133382 
L 314.00862 313.460905 
L 314.268627 307.469785 
L 314.528633 325.31897 
L 314.78864 326.063486 
L 315.048646 329.169996 
L 315.308653 318.012134 
L 315.568659 330.382298 
L 315.828666 328.46213 
L 316.088672 325.513365 
L 316.348679 320.407004 
L 316.608686 325.396892 
L 316.868692 306.915683 
L 317.128699 327.530394 
L 317.388705 323.064501 
L 317.648712 325.024015 
L 317.908718 316.743913 
L 318.168725 327.15215 
L 318.428731 322.664945 
L 318.688738 312.408216 
L 318.948744 329.606328 
L 319.208751 320.42676 
L 319.468757 320.628577 
L 319.728764 313.324924 
L 319.98877 323.558522 
L 320.248777 326.294926 
L 320.508783 320.519116 
L 320.76879 321.014278 
L 321.288803 319.125701 
L 321.548809 323.30095 
L 321.808816 325.027926 
L 322.068823 323.100483 
L 322.328829 325.22919 
L 322.588836 304.299381 
L 322.848842 330.714473 
L 323.368855 314.835975 
L 323.628862 319.29374 
L 323.888868 314.03053 
L 324.148875 323.709207 
L 324.408881 322.660412 
L 324.668888 323.561734 
L 324.928894 320.38447 
L 325.188901 330.156702 
L 325.448907 315.753228 
L 325.708914 320.346499 
L 325.96892 321.236461 
L 326.228927 326.223642 
L 326.488933 319.577778 
L 326.74894 319.224167 
L 327.008946 326.917432 
L 327.268953 321.39909 
L 327.52896 327.217268 
L 327.788966 328.824886 
L 328.048973 303.880507 
L 328.308979 321.938078 
L 328.568986 321.637757 
L 328.828992 326.53163 
L 329.088999 318.868978 
L 329.349005 326.601886 
L 329.609012 305.986664 
L 329.869018 326.268022 
L 330.129025 320.857512 
L 330.389031 322.842568 
L 330.649038 323.835366 
L 330.909044 329.562392 
L 331.169051 327.875761 
L 331.429057 323.225686 
L 331.689064 332.639688 
L 332.209077 324.540576 
L 332.469083 329.401458 
L 332.72909 316.928775 
L 332.989097 315.35249 
L 333.249103 291.778925 
L 333.50911 333.387195 
L 333.769116 326.686691 
L 334.029123 325.279613 
L 334.289129 318.52706 
L 334.549136 324.6064 
L 334.809142 313.090071 
L 335.069149 322.866463 
L 335.329155 309.55698 
L 335.589162 325.571167 
L 335.849168 321.690268 
L 336.109175 325.67104 
L 336.369181 317.754831 
L 337.149201 328.597671 
L 337.409207 330.196046 
L 337.669214 325.683682 
L 337.92922 317.501109 
L 338.189227 326.842738 
L 338.449233 319.557242 
L 338.70924 324.062046 
L 339.229253 319.497389 
L 339.48926 324.939216 
L 339.749266 323.537623 
L 340.009273 323.846588 
L 340.269279 321.393587 
L 340.529286 320.525337 
L 340.789292 328.880797 
L 341.049299 330.179848 
L 341.309305 314.444935 
L 341.569312 323.700011 
L 341.829318 319.397232 
L 342.089325 321.438243 
L 342.349331 326.868655 
L 342.609338 321.17898 
L 342.869344 323.361825 
L 343.129351 323.69567 
L 343.389357 326.874751 
L 343.649364 327.422618 
L 343.90937 328.274973 
L 344.169377 317.18601 
L 344.429384 326.219131 
L 344.68939 327.197363 
L 344.949397 313.505617 
L 345.209403 333.122827 
L 345.46941 315.540979 
L 345.729416 315.572734 
L 345.989423 312.262417 
L 346.249429 322.524317 
L 346.509436 320.395658 
L 346.769442 324.53601 
L 347.029449 324.30735 
L 347.289455 328.588934 
L 347.549462 330.276013 
L 347.809468 322.645648 
L 348.069475 325.94066 
L 348.329481 304.321791 
L 348.589488 312.121802 
L 348.849494 330.260255 
L 349.109501 300.816149 
L 349.369507 326.14935 
L 349.629514 323.623963 
L 349.889521 317.885246 
L 350.149527 324.641455 
L 350.66954 311.936698 
L 350.929547 312.648442 
L 351.189553 318.328055 
L 351.44956 329.094523 
L 351.709566 325.151364 
L 351.969573 326.267287 
L 352.489586 315.044417 
L 353.009599 328.916542 
L 353.269605 316.946564 
L 353.529612 319.862187 
L 353.789618 325.745601 
L 354.049625 320.659805 
L 354.569638 321.625472 
L 354.829644 329.695661 
L 355.089651 324.870767 
L 355.349658 310.821575 
L 355.609664 327.029454 
L 355.869671 317.748658 
L 356.129677 323.746491 
L 356.389684 322.980916 
L 356.64969 321.748305 
L 356.909697 316.408435 
L 357.169703 327.65127 
L 357.42971 325.788392 
L 357.689716 314.304333 
L 357.949723 321.184988 
L 358.209729 319.310611 
L 358.469736 324.367501 
L 358.729742 322.85416 
L 358.989749 329.592305 
L 359.249755 323.158883 
L 359.509762 330.146393 
L 359.769768 325.493643 
L 360.029775 324.835281 
L 360.289781 331.618664 
L 360.549788 325.463535 
L 360.809795 327.29318 
L 361.069801 324.112669 
L 361.329808 327.712209 
L 361.589814 316.46504 
L 361.849821 331.352406 
L 362.109827 332.319032 
L 362.369834 317.612703 
L 362.62984 315.221527 
L 362.889847 329.454739 
L 363.149853 333.403062 
L 363.40986 319.924655 
L 363.669866 328.217083 
L 363.929873 321.819597 
L 364.189879 328.103211 
L 364.449886 328.352154 
L 364.709892 330.540538 
L 364.969899 328.007526 
L 365.229905 287.697898 
L 365.489912 327.389685 
L 365.749918 319.503522 
L 366.009925 327.30114 
L 366.269932 320.050293 
L 366.529938 325.020714 
L 366.789945 327.666494 
L 367.049951 327.031144 
L 367.309958 329.252444 
L 367.569964 328.243469 
L 367.829971 323.489032 
L 368.089977 301.330679 
L 368.349984 330.216756 
L 368.60999 331.485371 
L 368.869997 324.048147 
L 369.130003 331.221281 
L 369.39001 331.705896 
L 369.650016 313.223116 
L 369.910023 334.841819 
L 370.170029 319.23071 
L 370.430036 327.085129 
L 370.690042 330.769205 
L 370.950049 325.178732 
L 371.210055 322.902817 
L 371.470062 324.350893 
L 371.730068 319.015179 
L 371.990075 321.653646 
L 372.250082 326.919778 
L 372.510088 307.858266 
L 372.770095 327.380187 
L 373.030101 334.011162 
L 373.290108 314.425898 
L 373.550114 327.902979 
L 373.810121 323.158484 
L 374.070127 324.526302 
L 374.330134 316.527669 
L 374.59014 317.593176 
L 374.850147 315.704633 
L 375.110153 325.249153 
L 375.37016 327.634188 
L 375.890173 313.353684 
L 376.150179 327.434249 
L 376.410186 313.216961 
L 376.670192 323.298965 
L 376.930199 319.612943 
L 377.190205 320.621707 
L 377.450212 310.782298 
L 377.710219 327.0419 
L 378.230232 319.040825 
L 378.490238 327.672611 
L 378.750245 323.074579 
L 379.010251 323.521128 
L 379.270258 331.336724 
L 379.530264 315.655498 
L 379.790271 331.210746 
L 380.050277 314.808706 
L 380.310284 327.900363 
L 380.57029 307.652427 
L 380.830297 330.95648 
L 381.35031 307.947643 
L 381.610316 325.842854 
L 382.130329 290.885161 
L 382.390336 327.234088 
L 382.910349 319.06473 
L 383.170356 326.25087 
L 383.430362 309.320262 
L 383.690369 333.041816 
L 383.950375 323.211041 
L 384.210382 324.458907 
L 384.470388 328.213189 
L 384.730395 327.747808 
L 384.990401 296.946541 
L 385.250408 324.433388 
L 385.510414 325.947957 
L 385.770421 319.089399 
L 386.030427 324.603718 
L 386.55044 327.480449 
L 386.810447 323.551617 
L 387.070453 323.146205 
L 387.33046 321.057247 
L 387.590466 323.500208 
L 387.850473 328.797547 
L 388.110479 323.641707 
L 388.630493 330.399441 
L 389.150506 319.570296 
L 389.410512 323.00116 
L 389.670519 321.828928 
L 390.190532 332.820155 
L 390.450538 308.716688 
L 390.710545 252.037556 
L 390.970551 321.028819 
L 391.230558 329.008462 
L 391.490564 324.196151 
L 391.750571 327.428094 
L 392.010577 324.196949 
L 392.270584 319.390565 
L 392.53059 324.889143 
L 392.790597 312.660365 
L 393.050603 320.620498 
L 393.31061 320.3733 
L 393.570616 325.659741 
L 393.830623 320.196954 
L 394.09063 327.857559 
L 394.870649 322.196141 
L 395.130656 332.347285 
L 395.390662 329.090572 
L 395.650669 331.924052 
L 395.910675 329.692286 
L 396.170682 324.848113 
L 396.430688 323.842483 
L 396.690695 330.588823 
L 396.950701 327.839448 
L 397.210708 331.41729 
L 397.470714 330.350214 
L 397.730721 306.002679 
L 397.990727 334.439148 
L 398.250734 323.9568 
L 398.770747 327.042003 
L 399.030753 326.105439 
L 399.29076 324.421056 
L 399.550767 335.660756 
L 399.810773 327.227142 
L 400.07078 329.200041 
L 400.330786 332.512703 
L 400.590793 327.352548 
L 400.850799 318.817222 
L 401.110806 319.800579 
L 401.370812 326.997786 
L 401.630819 325.437791 
L 401.890825 328.251277 
L 402.150832 332.361548 
L 402.410838 327.536344 
L 402.670845 332.436837 
L 402.930851 330.373988 
L 403.190858 329.808345 
L 403.710871 331.728931 
L 403.970877 307.685075 
L 404.230884 327.29428 
L 404.49089 328.755479 
L 405.010903 317.163447 
L 405.27091 332.526563 
L 405.530917 324.778963 
L 405.790923 326.660091 
L 406.05093 322.949735 
L 406.310936 328.357175 
L 406.570943 330.87729 
L 406.830949 317.206193 
L 407.090956 325.114144 
L 407.350962 321.218082 
L 407.610969 324.526498 
L 407.870975 314.422857 
L 408.130982 332.471692 
L 408.650995 322.367198 
L 408.911001 330.516797 
L 409.171008 327.209678 
L 409.431014 322.13694 
L 409.951027 328.668524 
L 410.211034 328.007224 
L 410.47104 329.741333 
L 410.731047 324.525732 
L 410.991054 315.666429 
L 411.25106 327.206191 
L 411.511067 328.985065 
L 411.771073 325.680091 
L 412.03108 314.389919 
L 412.291086 329.875238 
L 412.551093 326.880315 
L 412.811099 316.279872 
L 413.071106 315.395957 
L 413.331112 328.516576 
L 413.591119 315.946818 
L 413.851125 323.408326 
L 414.111132 327.556935 
L 414.371138 321.279583 
L 414.631145 329.577643 
L 414.891151 326.222642 
L 415.151158 332.513848 
L 415.411164 324.885403 
L 415.671171 320.81017 
L 415.931177 319.735977 
L 416.451191 326.13351 
L 416.711197 308.679583 
L 416.971204 329.167346 
L 417.23121 328.814056 
L 417.491217 320.908315 
L 417.751223 316.716924 
L 418.01123 333.058891 
L 418.271236 328.870486 
L 418.531243 328.492476 
L 418.791249 320.223288 
L 419.051256 331.077272 
L 419.311262 321.307361 
L 419.571269 324.548954 
L 419.831275 329.456937 
L 420.091282 328.898678 
L 420.351288 329.17491 
L 420.611295 325.113462 
L 420.871301 327.148114 
L 421.131308 333.785521 
L 421.391314 322.845448 
L 421.651321 333.478601 
L 421.911328 289.727853 
L 422.171334 318.719334 
L 422.431341 323.884005 
L 422.691347 321.828031 
L 422.951354 329.501136 
L 423.21136 325.638686 
L 423.471367 320.01476 
L 423.99138 330.008671 
L 424.251386 328.081415 
L 424.511393 325.25321 
L 424.771399 331.84476 
L 425.031406 326.325118 
L 425.291412 330.674961 
L 425.551419 327.682998 
L 425.811425 310.099354 
L 426.071432 324.423277 
L 426.331438 326.216889 
L 426.591445 328.969371 
L 426.851451 313.613655 
L 427.111458 324.828998 
L 427.371465 317.909372 
L 427.631471 328.399325 
L 427.891478 321.452448 
L 428.151484 328.189062 
L 428.411491 326.802862 
L 428.671497 329.470297 
L 428.931504 327.576874 
L 429.19151 319.671964 
L 429.451517 319.21741 
L 429.711523 324.564714 
L 429.97153 319.68119 
L 430.231536 318.606738 
L 430.491543 329.826538 
L 430.751549 322.895087 
L 431.011556 329.12435 
L 431.271562 324.536513 
L 431.791575 328.521866 
L 432.051582 323.006708 
L 432.311588 331.619051 
L 432.831602 322.912711 
L 433.091608 317.747721 
L 433.611621 330.770139 
L 433.871628 322.528947 
L 434.131634 323.539221 
L 434.391641 319.299975 
L 434.651647 323.656997 
L 434.911654 319.833132 
L 435.17166 320.752148 
L 435.431667 329.100949 
L 435.691673 321.413686 
L 435.95168 320.331587 
L 436.211686 327.147278 
L 436.731699 332.509603 
L 437.251712 322.931084 
L 437.511719 328.761574 
L 437.771725 320.702451 
L 438.031732 322.989206 
L 438.291739 322.584164 
L 438.551745 329.321051 
L 438.811752 323.591012 
L 439.071758 328.714629 
L 439.331765 320.45181 
L 439.591771 317.910273 
L 439.851778 330.891704 
L 440.111784 330.592439 
L 440.371791 329.367718 
L 440.631797 329.32032 
L 441.15181 321.881192 
L 441.411817 330.149575 
L 441.671823 329.864543 
L 441.93183 307.64412 
L 442.191836 328.159186 
L 442.451843 319.469887 
L 442.711849 320.349516 
L 442.971856 331.43138 
L 443.231862 309.816693 
L 443.491869 325.013789 
L 443.751875 325.489433 
L 444.011882 328.208448 
L 444.271889 321.403516 
L 444.531895 331.011105 
L 444.791902 332.510127 
L 445.051908 326.142231 
L 445.311915 329.550148 
L 445.571921 335.162888 
L 445.831928 326.664853 
L 446.091934 324.213532 
L 446.351941 325.803743 
L 446.611947 322.741682 
L 446.871954 328.901065 
L 447.13196 328.3508 
L 447.391967 328.107117 
L 447.651973 325.429662 
L 447.91198 318.194419 
L 448.171986 325.039928 
L 448.431993 323.909963 
L 448.691999 325.083841 
L 448.952006 330.805278 
L 449.212012 320.001175 
L 449.472019 324.204744 
L 449.732026 331.265407 
L 449.992032 328.805812 
L 450.252039 330.367907 
L 450.512045 322.907512 
L 450.772052 326.117673 
L 451.032058 331.698982 
L 451.552071 321.989066 
L 451.812078 328.785532 
L 452.072084 326.169947 
L 452.332091 330.46127 
L 452.592097 326.848746 
L 453.11211 332.764656 
L 453.372117 310.812159 
L 453.632123 329.473925 
L 453.89213 327.917914 
L 454.152136 324.279047 
L 454.412143 325.299676 
L 454.672149 325.764445 
L 454.932156 305.171152 
L 455.192163 325.877185 
L 455.452169 324.937153 
L 455.712176 320.156226 
L 455.972182 325.835471 
L 456.232189 319.175195 
L 456.492195 330.075136 
L 456.752202 320.313365 
L 457.012208 326.720806 
L 457.272215 320.770514 
L 457.532221 326.716463 
L 457.792228 313.90695 
L 458.052234 326.355795 
L 458.312241 320.746031 
L 458.572247 299.568636 
L 458.832254 328.244347 
L 459.09226 309.882343 
L 459.352267 326.264309 
L 459.612273 319.383926 
L 459.87228 328.317936 
L 460.392293 308.682218 
L 460.6523 329.66804 
L 460.912306 330.852861 
L 461.172313 323.247378 
L 461.432319 296.182553 
L 461.692326 329.957979 
L 461.952332 320.894562 
L 462.212339 329.84554 
L 462.472345 327.828166 
L 462.732352 316.186333 
L 462.992358 322.330196 
L 463.252365 312.399784 
L 463.512371 326.552857 
L 463.772378 323.214375 
L 464.292391 311.390897 
L 464.812404 329.238295 
L 465.332417 321.78407 
L 465.592423 323.049842 
L 465.85243 327.286618 
L 466.112437 314.875417 
L 466.372443 316.575109 
L 466.63245 324.23443 
L 466.892456 310.246647 
L 467.152463 325.803376 
L 467.412469 330.347115 
L 467.672476 330.987827 
L 467.932482 322.056051 
L 468.192489 308.586399 
L 468.452495 332.141647 
L 468.712502 319.63161 
L 468.972508 319.510594 
L 469.232515 331.003666 
L 469.752528 314.291276 
L 470.012534 327.066419 
L 470.272541 323.22756 
L 470.792554 328.27401 
L 471.05256 323.996621 
L 471.312567 328.565992 
L 471.572574 327.667721 
L 471.83258 331.015073 
L 472.092587 325.174509 
L 472.352593 325.707517 
L 472.6126 316.642817 
L 472.872606 286.735573 
L 473.132613 332.452777 
L 473.392619 322.639771 
L 473.652626 318.078682 
L 473.912632 321.18107 
L 474.172639 322.271111 
L 474.432645 317.744204 
L 474.692652 318.993713 
L 474.952658 312.632684 
L 475.212665 325.94036 
L 475.472671 320.334351 
L 475.732678 325.637838 
L 475.992684 321.745577 
L 476.252691 321.813683 
L 476.512697 323.466932 
L 476.772704 327.367983 
L 477.03271 324.672637 
L 477.292717 326.191783 
L 477.552724 325.551624 
L 477.81273 325.568508 
L 478.072737 328.708578 
L 478.332743 326.67523 
L 478.59275 285.363868 
L 478.852756 312.326991 
L 479.112763 324.293257 
L 479.372769 324.226981 
L 479.632776 328.781886 
L 479.892782 315.297183 
L 480.152789 314.702493 
L 480.412795 312.361996 
L 480.672802 319.529578 
L 480.932808 317.440036 
L 481.192815 325.928814 
L 481.452821 313.511522 
L 481.712828 325.981856 
L 481.972834 314.428375 
L 482.232841 312.977509 
L 482.492847 323.851536 
L 482.752854 328.725523 
L 483.012861 328.495225 
L 483.272867 306.00319 
L 483.79288 325.806566 
L 484.052887 308.333584 
L 484.5729 329.013411 
L 484.832906 324.200174 
L 485.092913 295.848113 
L 485.352919 323.574977 
L 485.612926 327.293035 
L 485.872932 325.963161 
L 486.132939 310.892625 
L 486.652952 325.811951 
L 486.912958 328.144343 
L 487.172965 315.214778 
L 487.432971 321.143404 
L 487.692978 320.038934 
L 487.952984 320.936452 
L 488.212991 319.88612 
L 488.472998 332.087136 
L 488.733004 314.698944 
L 488.993011 318.415915 
L 489.253017 326.784294 
L 489.513024 330.958663 
L 489.77303 320.732128 
L 490.033037 317.819055 
L 490.293043 302.815304 
L 490.55305 327.884413 
L 490.813056 318.211826 
L 491.073063 328.376967 
L 491.333069 325.421216 
L 491.593076 327.847626 
L 491.853082 326.029417 
L 492.113089 335.008409 
L 492.373095 314.434422 
L 492.633102 327.874524 
L 492.893108 315.370558 
L 493.153115 313.197861 
L 493.413121 317.857623 
L 493.673128 330.951926 
L 493.933135 327.037154 
L 494.193141 327.640298 
L 494.453148 310.645628 
L 494.713154 322.479019 
L 494.973161 325.887283 
L 495.233167 312.868962 
L 495.493174 322.015125 
L 495.75318 321.839839 
L 496.013187 326.935367 
L 496.273193 328.490949 
L 496.5332 327.198165 
L 496.793206 330.462635 
L 497.053213 320.378802 
L 497.313219 327.079938 
L 497.573226 322.805497 
L 497.833232 327.257932 
L 498.093239 323.88104 
L 498.353245 330.744862 
L 498.613252 328.296258 
L 498.873258 317.44676 
L 499.133265 329.429311 
L 499.393272 328.560637 
L 499.653278 332.446599 
L 499.913285 323.77664 
L 500.173291 305.884071 
L 500.433298 329.568012 
L 500.693304 325.833408 
L 500.953311 311.188412 
L 501.213317 325.927547 
L 501.473324 323.67989 
L 501.73333 324.446657 
L 501.993337 333.505639 
L 502.51335 325.723455 
L 502.773356 316.030752 
L 503.033363 326.094377 
L 503.293369 328.882237 
L 503.553376 322.941784 
L 503.813382 328.741594 
L 504.333395 326.139668 
L 504.593402 330.998548 
L 504.853409 329.800933 
L 505.113415 329.527626 
L 505.373422 327.585165 
L 505.633428 331.240863 
L 505.893435 326.996032 
L 506.153441 326.435588 
L 506.413448 324.646047 
L 506.673454 327.47404 
L 506.933461 324.743171 
L 507.193467 333.245738 
L 507.453474 333.30351 
L 507.71348 328.911801 
L 507.973487 331.269459 
L 508.233493 329.050746 
L 508.4935 329.331114 
L 508.753506 325.830701 
L 509.013513 318.190745 
L 509.273519 305.654593 
L 509.533526 330.855059 
L 509.793532 319.686212 
L 510.053539 331.127952 
L 510.313546 330.979806 
L 510.573552 318.055366 
L 510.833559 330.792065 
L 511.093565 330.683816 
L 511.613578 328.094139 
L 511.873585 329.613219 
L 512.133591 330.138641 
L 512.393598 332.25554 
L 512.653604 327.545473 
L 512.913611 333.287269 
L 513.173617 329.469716 
L 513.433624 306.967224 
L 513.69363 325.735586 
L 513.953637 326.7187 
L 514.213643 331.277792 
L 514.47365 333.780021 
L 514.733656 328.712342 
L 515.253669 326.556226 
L 515.773682 334.539225 
L 516.033689 330.756767 
L 516.293696 323.216152 
L 516.553702 308.353076 
L 516.813709 331.106522 
L 517.073715 329.653602 
L 517.333722 331.856054 
L 517.853735 314.735189 
L 518.113741 325.42823 
L 518.373748 329.272013 
L 518.633754 329.237388 
L 519.153767 321.5719 
L 519.413774 333.098056 
L 519.67378 332.939484 
L 519.933787 331.551969 
L 520.193793 322.893538 
L 520.4538 321.778019 
L 520.713806 333.924282 
L 520.973813 324.95285 
L 521.233819 329.257461 
L 521.493826 328.767669 
L 521.753833 330.371515 
L 522.013839 327.331156 
L 522.273846 326.297397 
L 522.533852 326.638579 
L 522.793859 328.860388 
L 523.053865 329.280415 
L 523.313872 330.630059 
L 523.573878 308.780629 
L 523.833885 330.00142 
L 524.093891 328.612923 
L 524.353898 330.041301 
L 524.613904 329.244205 
L 524.873911 325.724097 
L 525.133917 332.147631 
L 525.65393 291.446772 
L 525.913937 328.207459 
L 526.173943 318.617434 
L 526.43395 322.853561 
L 526.693956 317.974168 
L 526.953963 316.509074 
L 527.473976 333.886962 
L 527.733983 320.320128 
L 527.993989 331.635502 
L 528.253996 316.796043 
L 528.774009 326.421358 
L 529.034015 310.892315 
L 529.294022 331.040458 
L 529.554028 326.40445 
L 529.814035 326.444596 
L 530.074041 325.313072 
L 530.334048 325.767731 
L 530.594054 329.026198 
L 530.854061 281.674861 
L 531.114067 327.211491 
L 531.374074 327.010708 
L 531.63408 318.047706 
L 531.894087 332.074798 
L 532.154093 330.634153 
L 532.4141 322.174596 
L 532.674107 320.178505 
L 532.934113 298.44331 
L 533.19412 327.718663 
L 533.714133 330.392141 
L 533.974139 319.673006 
L 534.234146 326.783874 
L 534.494152 325.567881 
L 534.754159 331.380048 
L 535.014165 332.516115 
L 535.794185 317.072461 
L 536.054191 328.349373 
L 536.314198 332.571055 
L 536.574204 331.444383 
L 536.834211 326.565978 
L 537.094217 330.751491 
L 537.354224 325.837783 
L 537.61423 323.464014 
L 537.874237 330.529454 
L 538.134244 324.736133 
L 538.39425 331.899469 
L 538.654257 325.218363 
L 538.914263 327.914093 
L 539.17427 319.822774 
L 539.434276 332.307297 
L 539.694283 328.761182 
L 539.954289 329.735962 
L 540.214296 329.802155 
L 540.474302 332.780341 
L 540.734309 333.358102 
L 540.994315 316.644381 
L 541.254322 330.351487 
L 541.514328 331.561172 
L 541.774335 326.443051 
L 542.034341 327.180987 
L 542.294348 286.231309 
L 542.554354 329.325015 
L 542.814361 306.110927 
L 543.074367 329.070239 
L 543.334374 322.368235 
L 543.594381 327.225607 
L 543.854387 325.25909 
L 544.114394 324.846006 
L 544.3744 311.284168 
L 544.634407 317.172874 
L 544.894413 330.665628 
L 545.15442 320.053855 
L 545.414426 320.674765 
L 545.674433 327.211073 
L 545.934439 324.491039 
L 546.194446 328.629752 
L 546.454452 323.502174 
L 546.714459 324.590666 
L 546.974465 321.543973 
L 547.234472 321.162399 
L 547.754485 327.392376 
L 548.014491 296.548543 
L 548.534504 331.514899 
L 548.794511 326.973819 
L 549.054517 333.758164 
L 549.314524 306.015728 
L 549.574531 327.672729 
L 549.834537 323.075476 
L 550.094544 325.210075 
L 550.35455 324.716377 
L 550.614557 315.471904 
L 550.874563 325.965254 
L 551.13457 327.253853 
L 551.394576 324.655392 
L 551.654583 319.768468 
L 551.914589 330.641953 
L 552.174596 330.425817 
L 552.434602 318.448153 
L 552.694609 328.369678 
L 552.954615 332.053141 
L 553.214622 330.657585 
L 553.474628 324.874246 
L 553.734635 327.143654 
L 553.994641 332.885297 
L 554.254648 324.279428 
L 554.514654 333.802894 
L 554.774661 327.963432 
L 555.034668 331.085695 
L 555.294674 332.842781 
L 555.554681 332.241956 
L 555.814687 332.899049 
L 556.074694 309.648193 
L 556.3347 333.420557 
L 556.594707 327.904745 
L 556.854713 312.513858 
L 557.11472 329.746444 
L 557.374726 333.20236 
L 557.634733 330.258381 
L 557.894739 328.958312 
L 558.154746 333.69877 
L 558.414752 329.422755 
L 558.674759 329.433507 
L 558.934765 335.102814 
L 559.454778 323.291482 
L 559.714785 332.655898 
L 559.974791 321.180762 
L 560.234798 332.750059 
L 560.494805 324.258594 
L 560.754811 329.007332 
L 561.014818 330.049516 
L 561.274824 310.5586 
L 561.534831 328.177009 
L 561.794837 330.495725 
L 562.054844 319.799964 
L 562.31485 324.462654 
L 562.574857 325.288066 
L 562.834863 331.075721 
L 563.09487 316.736028 
L 563.354876 316.030878 
L 563.614883 325.411707 
L 563.874889 292.166177 
L 564.134896 316.454948 
L 564.654909 307.540566 
L 564.914915 328.340435 
L 565.174922 323.109406 
L 565.434928 329.301393 
L 565.694935 323.851881 
L 565.954942 310.293169 
L 566.214948 331.073672 
L 566.474955 321.725087 
L 566.734961 324.057565 
L 566.994968 331.52084 
L 567.514981 321.350993 
L 567.774987 328.260499 
L 568.034994 313.585268 
L 568.295 328.091392 
L 568.555007 311.880576 
L 568.815013 333.923972 
L 569.07502 327.402805 
L 569.335026 327.982705 
L 569.595033 329.72704 
L 569.855039 328.09005 
L 570.115046 296.664969 
L 570.375052 324.185622 
L 570.635059 315.256936 
L 570.895065 319.153731 
L 571.155072 315.403332 
L 571.935092 329.833334 
L 572.195098 324.494383 
L 572.715111 331.516181 
L 572.975118 329.551375 
L 573.235124 328.928951 
L 573.495131 322.982042 
L 573.755137 326.114112 
L 574.015144 332.17984 
L 574.27515 332.83521 
L 574.535157 326.213502 
L 574.795163 323.07477 
L 575.05517 329.308394 
L 575.315176 330.696634 
L 575.835189 319.088663 
L 576.095196 323.068217 
L 576.355202 321.220042 
L 576.875216 332.305456 
L 577.135222 321.425855 
L 577.395229 328.51735 
L 577.655235 327.80091 
L 577.915242 331.944558 
L 578.175248 319.949386 
L 578.435255 328.193427 
L 578.695261 324.099595 
L 578.955268 315.906924 
L 579.475281 332.89775 
L 579.735287 317.961144 
L 579.995294 329.484579 
L 580.2553 327.32253 
L 580.515307 331.340755 
L 580.775313 323.374089 
L 581.03532 306.258506 
L 581.295326 322.634719 
L 581.555333 327.45883 
L 581.815339 326.790415 
L 582.075346 333.712516 
L 582.335352 326.010473 
L 582.595359 329.066944 
L 582.855366 328.446879 
L 583.375379 331.185556 
L 583.635385 329.212074 
L 583.895392 321.568933 
L 584.155398 319.216073 
L 584.415405 327.739176 
L 584.675411 317.092029 
L 584.935418 329.533273 
L 585.195424 331.181706 
L 585.715437 329.967096 
L 585.975444 327.118598 
L 586.23545 328.987427 
L 586.495457 321.519807 
L 586.755463 327.00992 
L 587.275476 332.461997 
L 587.535483 324.725601 
L 587.795489 331.848982 
L 588.055496 322.047445 
L 588.315503 332.470211 
L 588.575509 322.754369 
L 588.835516 327.861235 
L 589.095522 315.395873 
L 589.355529 309.279495 
L 589.615535 308.771825 
L 589.875542 325.137696 
L 590.135548 326.714558 
L 590.395555 326.944957 
L 590.655561 321.47926 
L 590.915568 327.216463 
L 591.175574 321.720474 
L 591.435581 329.724339 
L 591.695587 323.967012 
L 591.955594 328.755082 
L 592.2156 329.473917 
L 592.475607 319.980818 
L 592.735613 326.370032 
L 592.99562 310.44039 
L 593.255626 332.039145 
L 593.515633 332.97578 
L 593.77564 326.025535 
L 594.035646 328.410198 
L 594.295653 326.109296 
L 594.555659 326.020531 
L 594.815666 330.549366 
L 595.075672 324.65334 
L 595.335679 324.807607 
L 595.595685 329.019461 
L 595.855692 329.543905 
L 596.115698 327.469651 
L 596.375705 334.899163 
L 596.635711 320.993539 
L 596.895718 329.775553 
L 597.155724 334.629141 
L 597.415731 321.138896 
L 597.935744 332.060038 
L 598.19575 328.436096 
L 598.455757 329.067135 
L 598.715763 329.076312 
L 598.97577 318.473586 
L 599.235777 328.010547 
L 599.495783 313.744864 
L 599.75579 331.758509 
L 600.015796 331.376239 
L 600.275803 293.282893 
L 600.535809 332.296771 
L 600.795816 331.420041 
L 601.055822 329.800712 
L 601.575835 312.206646 
L 601.835842 320.058736 
L 602.095848 318.217318 
L 602.355855 328.954725 
L 602.615861 328.761325 
L 602.875868 307.837864 
L 603.135874 319.867899 
L 603.395881 325.966699 
L 603.655887 327.157118 
L 603.915894 319.333746 
L 604.435907 325.339491 
L 604.695914 314.319695 
L 604.95592 318.22538 
L 605.215927 316.654056 
L 605.475933 325.599537 
L 605.73594 320.003621 
L 605.995946 322.134369 
L 606.255953 312.389363 
L 606.775966 330.188456 
L 607.295979 324.831335 
L 607.555985 324.49549 
L 607.815992 328.398722 
L 608.075998 323.067284 
L 608.336005 321.890101 
L 608.596011 328.684029 
L 608.856018 329.765887 
L 609.116024 318.820087 
L 609.376031 333.761208 
L 609.636037 324.607901 
L 609.896044 324.199684 
L 610.156051 323.553522 
L 610.416057 331.240135 
L 610.676064 332.998598 
L 610.93607 326.595651 
L 611.196077 325.819903 
L 611.456083 316.853119 
L 611.71609 332.280175 
L 611.976096 328.984649 
L 612.236103 332.409787 
L 612.496109 330.304069 
L 612.756116 332.01792 
L 613.016122 332.608316 
L 613.276129 331.82939 
L 613.536135 329.065954 
L 613.796142 328.699911 
L 614.056148 332.577056 
L 614.316155 326.430372 
L 614.836168 332.843893 
L 615.096174 319.960588 
L 615.356181 324.811387 
L 615.616188 322.481543 
L 615.876194 333.505207 
L 616.136201 334.278022 
L 616.656214 329.791204 
L 616.91622 317.084962 
L 617.176227 330.432517 
L 617.436233 332.790508 
L 617.69624 326.814963 
L 617.956246 326.097456 
L 618.216253 330.425304 
L 618.476259 326.758969 
L 618.736266 316.078732 
L 618.996272 331.541244 
L 619.256279 315.768188 
L 619.516285 331.311411 
L 619.776292 321.37137 
L 620.036298 328.676039 
L 620.296305 325.688417 
L 620.556311 328.343962 
L 620.816318 329.782226 
L 621.076324 323.763531 
L 621.336331 331.296558 
L 621.596338 322.453693 
L 621.856344 331.246754 
L 622.116351 328.922361 
L 622.376357 331.631176 
L 622.636364 326.773948 
L 622.636364 326.773948 
" style="fill:none;stroke:#1f77b4;stroke-linecap:square;stroke-width:1.5;"/>
   </g>
   <g id="patch_3">
    <path d="M 90 338.4 
L 90 86.4 
" style="fill:none;stroke:#000000;stroke-linecap:square;stroke-linejoin:miter;stroke-width:0.8;"/>
   </g>
   <g id="patch_4">
    <path d="M 648 338.4 
L 648 86.4 
" style="fill:none;stroke:#000000;stroke-linecap:square;stroke-linejoin:miter;stroke-width:0.8;"/>
   </g>
   <g id="patch_5">
    <path d="M 90 338.4 
L 648 338.4 
" style="fill:none;stroke:#000000;stroke-linecap:square;stroke-linejoin:miter;stroke-width:0.8;"/>
   </g>
   <g id="patch_6">
    <path d="M 90 86.4 
L 648 86.4 
" style="fill:none;stroke:#000000;stroke-linecap:square;stroke-linejoin:miter;stroke-width:0.8;"/>
   </g>
  </g>
  <g id="axes_2">
   <g id="patch_7">
    <path d="M 90 640.8 
L 648 640.8 
L 648 388.8 
L 90 388.8 
z
" style="fill:#ffffff;"/>
   </g>
   <g id="matplotlib.axis_3">
    <g id="xtick_10">
     <g id="line2d_20">
      <g>
       <use style="stroke:#000000;stroke-width:0.8;" x="115.363636" xlink:href="#mb802039893" y="640.8"/>
      </g>
     </g>
     <g id="text_21">
      <!-- 1.0 -->
      <g transform="translate(107.412074 655.398438)scale(0.1 -0.1)">
       <use xlink:href="#DejaVuSans-49"/>
       <use x="63.623047" xlink:href="#DejaVuSans-46"/>
       <use x="95.410156" xlink:href="#DejaVuSans-48"/>
      </g>
     </g>
    </g>
    <g id="xtick_11">
     <g id="line2d_21">
      <g>
       <use style="stroke:#000000;stroke-width:0.8;" x="199.909091" xlink:href="#mb802039893" y="640.8"/>
      </g>
     </g>
     <g id="text_22">
      <!-- 1.5 -->
      <g transform="translate(191.957528 655.398438)scale(0.1 -0.1)">
       <use xlink:href="#DejaVuSans-49"/>
       <use x="63.623047" xlink:href="#DejaVuSans-46"/>
       <use x="95.410156" xlink:href="#DejaVuSans-53"/>
      </g>
     </g>
    </g>
    <g id="xtick_12">
     <g id="line2d_22">
      <g>
       <use style="stroke:#000000;stroke-width:0.8;" x="284.454545" xlink:href="#mb802039893" y="640.8"/>
      </g>
     </g>
     <g id="text_23">
      <!-- 2.0 -->
      <g transform="translate(276.502983 655.398438)scale(0.1 -0.1)">
       <use xlink:href="#DejaVuSans-50"/>
       <use x="63.623047" xlink:href="#DejaVuSans-46"/>
       <use x="95.410156" xlink:href="#DejaVuSans-48"/>
      </g>
     </g>
    </g>
    <g id="xtick_13">
     <g id="line2d_23">
      <g>
       <use style="stroke:#000000;stroke-width:0.8;" x="369" xlink:href="#mb802039893" y="640.8"/>
      </g>
     </g>
     <g id="text_24">
      <!-- 2.5 -->
      <g transform="translate(361.048437 655.398438)scale(0.1 -0.1)">
       <use xlink:href="#DejaVuSans-50"/>
       <use x="63.623047" xlink:href="#DejaVuSans-46"/>
       <use x="95.410156" xlink:href="#DejaVuSans-53"/>
      </g>
     </g>
    </g>
    <g id="xtick_14">
     <g id="line2d_24">
      <g>
       <use style="stroke:#000000;stroke-width:0.8;" x="453.545455" xlink:href="#mb802039893" y="640.8"/>
      </g>
     </g>
     <g id="text_25">
      <!-- 3.0 -->
      <defs>
       <path d="M 40.578125 39.3125 
Q 47.65625 37.796875 51.625 33 
Q 55.609375 28.21875 55.609375 21.1875 
Q 55.609375 10.40625 48.1875 4.484375 
Q 40.765625 -1.421875 27.09375 -1.421875 
Q 22.515625 -1.421875 17.65625 -0.515625 
Q 12.796875 0.390625 7.625 2.203125 
L 7.625 11.71875 
Q 11.71875 9.328125 16.59375 8.109375 
Q 21.484375 6.890625 26.8125 6.890625 
Q 36.078125 6.890625 40.9375 10.546875 
Q 45.796875 14.203125 45.796875 21.1875 
Q 45.796875 27.640625 41.28125 31.265625 
Q 36.765625 34.90625 28.71875 34.90625 
L 20.21875 34.90625 
L 20.21875 43.015625 
L 29.109375 43.015625 
Q 36.375 43.015625 40.234375 45.921875 
Q 44.09375 48.828125 44.09375 54.296875 
Q 44.09375 59.90625 40.109375 62.90625 
Q 36.140625 65.921875 28.71875 65.921875 
Q 24.65625 65.921875 20.015625 65.03125 
Q 15.375 64.15625 9.8125 62.3125 
L 9.8125 71.09375 
Q 15.4375 72.65625 20.34375 73.4375 
Q 25.25 74.21875 29.59375 74.21875 
Q 40.828125 74.21875 47.359375 69.109375 
Q 53.90625 64.015625 53.90625 55.328125 
Q 53.90625 49.265625 50.4375 45.09375 
Q 46.96875 40.921875 40.578125 39.3125 
z
" id="DejaVuSans-51"/>
      </defs>
      <g transform="translate(445.593892 655.398438)scale(0.1 -0.1)">
       <use xlink:href="#DejaVuSans-51"/>
       <use x="63.623047" xlink:href="#DejaVuSans-46"/>
       <use x="95.410156" xlink:href="#DejaVuSans-48"/>
      </g>
     </g>
    </g>
    <g id="xtick_15">
     <g id="line2d_25">
      <g>
       <use style="stroke:#000000;stroke-width:0.8;" x="538.090909" xlink:href="#mb802039893" y="640.8"/>
      </g>
     </g>
     <g id="text_26">
      <!-- 3.5 -->
      <g transform="translate(530.139347 655.398438)scale(0.1 -0.1)">
       <use xlink:href="#DejaVuSans-51"/>
       <use x="63.623047" xlink:href="#DejaVuSans-46"/>
       <use x="95.410156" xlink:href="#DejaVuSans-53"/>
      </g>
     </g>
    </g>
    <g id="xtick_16">
     <g id="line2d_26">
      <g>
       <use style="stroke:#000000;stroke-width:0.8;" x="622.636364" xlink:href="#mb802039893" y="640.8"/>
      </g>
     </g>
     <g id="text_27">
      <!-- 4.0 -->
      <defs>
       <path d="M 37.796875 64.3125 
L 12.890625 25.390625 
L 37.796875 25.390625 
z
M 35.203125 72.90625 
L 47.609375 72.90625 
L 47.609375 25.390625 
L 58.015625 25.390625 
L 58.015625 17.1875 
L 47.609375 17.1875 
L 47.609375 0 
L 37.796875 0 
L 37.796875 17.1875 
L 4.890625 17.1875 
L 4.890625 26.703125 
z
" id="DejaVuSans-52"/>
      </defs>
      <g transform="translate(614.684801 655.398438)scale(0.1 -0.1)">
       <use xlink:href="#DejaVuSans-52"/>
       <use x="63.623047" xlink:href="#DejaVuSans-46"/>
       <use x="95.410156" xlink:href="#DejaVuSans-48"/>
      </g>
     </g>
    </g>
    <g id="text_28">
     <!-- Number of epochs -->
     <defs>
      <path d="M 18.109375 8.203125 
L 18.109375 -20.796875 
L 9.078125 -20.796875 
L 9.078125 54.6875 
L 18.109375 54.6875 
L 18.109375 46.390625 
Q 20.953125 51.265625 25.265625 53.625 
Q 29.59375 56 35.59375 56 
Q 45.5625 56 51.78125 48.09375 
Q 58.015625 40.1875 58.015625 27.296875 
Q 58.015625 14.40625 51.78125 6.484375 
Q 45.5625 -1.421875 35.59375 -1.421875 
Q 29.59375 -1.421875 25.265625 0.953125 
Q 20.953125 3.328125 18.109375 8.203125 
z
M 48.6875 27.296875 
Q 48.6875 37.203125 44.609375 42.84375 
Q 40.53125 48.484375 33.40625 48.484375 
Q 26.265625 48.484375 22.1875 42.84375 
Q 18.109375 37.203125 18.109375 27.296875 
Q 18.109375 17.390625 22.1875 11.75 
Q 26.265625 6.109375 33.40625 6.109375 
Q 40.53125 6.109375 44.609375 11.75 
Q 48.6875 17.390625 48.6875 27.296875 
z
" id="DejaVuSans-112"/>
      <path d="M 48.78125 52.59375 
L 48.78125 44.1875 
Q 44.96875 46.296875 41.140625 47.34375 
Q 37.3125 48.390625 33.40625 48.390625 
Q 24.65625 48.390625 19.8125 42.84375 
Q 14.984375 37.3125 14.984375 27.296875 
Q 14.984375 17.28125 19.8125 11.734375 
Q 24.65625 6.203125 33.40625 6.203125 
Q 37.3125 6.203125 41.140625 7.25 
Q 44.96875 8.296875 48.78125 10.40625 
L 48.78125 2.09375 
Q 45.015625 0.34375 40.984375 -0.53125 
Q 36.96875 -1.421875 32.421875 -1.421875 
Q 20.0625 -1.421875 12.78125 6.34375 
Q 5.515625 14.109375 5.515625 27.296875 
Q 5.515625 40.671875 12.859375 48.328125 
Q 20.21875 56 33.015625 56 
Q 37.15625 56 41.109375 55.140625 
Q 45.0625 54.296875 48.78125 52.59375 
z
" id="DejaVuSans-99"/>
      <path d="M 54.890625 33.015625 
L 54.890625 0 
L 45.90625 0 
L 45.90625 32.71875 
Q 45.90625 40.484375 42.875 44.328125 
Q 39.84375 48.1875 33.796875 48.1875 
Q 26.515625 48.1875 22.3125 43.546875 
Q 18.109375 38.921875 18.109375 30.90625 
L 18.109375 0 
L 9.078125 0 
L 9.078125 75.984375 
L 18.109375 75.984375 
L 18.109375 46.1875 
Q 21.34375 51.125 25.703125 53.5625 
Q 30.078125 56 35.796875 56 
Q 45.21875 56 50.046875 50.171875 
Q 54.890625 44.34375 54.890625 33.015625 
z
" id="DejaVuSans-104"/>
     </defs>
     <g transform="translate(323.083594 669.076563)scale(0.1 -0.1)">
      <use xlink:href="#DejaVuSans-78"/>
      <use x="74.804688" xlink:href="#DejaVuSans-117"/>
      <use x="138.183594" xlink:href="#DejaVuSans-109"/>
      <use x="235.595703" xlink:href="#DejaVuSans-98"/>
      <use x="299.072266" xlink:href="#DejaVuSans-101"/>
      <use x="360.595703" xlink:href="#DejaVuSans-114"/>
      <use x="401.708984" xlink:href="#DejaVuSans-32"/>
      <use x="433.496094" xlink:href="#DejaVuSans-111"/>
      <use x="494.677734" xlink:href="#DejaVuSans-102"/>
      <use x="529.882812" xlink:href="#DejaVuSans-32"/>
      <use x="561.669922" xlink:href="#DejaVuSans-101"/>
      <use x="623.193359" xlink:href="#DejaVuSans-112"/>
      <use x="686.669922" xlink:href="#DejaVuSans-111"/>
      <use x="747.851562" xlink:href="#DejaVuSans-99"/>
      <use x="802.832031" xlink:href="#DejaVuSans-104"/>
      <use x="866.210938" xlink:href="#DejaVuSans-115"/>
     </g>
    </g>
   </g>
   <g id="matplotlib.axis_4">
    <g id="ytick_10">
     <g id="line2d_27">
      <g>
       <use style="stroke:#000000;stroke-width:0.8;" x="90" xlink:href="#m7dfeb8075e" y="640.8"/>
      </g>
     </g>
     <g id="text_29">
      <!-- 0.5 -->
      <g transform="translate(67.096875 644.599219)scale(0.1 -0.1)">
       <use xlink:href="#DejaVuSans-48"/>
       <use x="63.623047" xlink:href="#DejaVuSans-46"/>
       <use x="95.410156" xlink:href="#DejaVuSans-53"/>
      </g>
     </g>
    </g>
    <g id="ytick_11">
     <g id="line2d_28">
      <g>
       <use style="stroke:#000000;stroke-width:0.8;" x="90" xlink:href="#m7dfeb8075e" y="590.4"/>
      </g>
     </g>
     <g id="text_30">
      <!-- 0.6 -->
      <defs>
       <path d="M 33.015625 40.375 
Q 26.375 40.375 22.484375 35.828125 
Q 18.609375 31.296875 18.609375 23.390625 
Q 18.609375 15.53125 22.484375 10.953125 
Q 26.375 6.390625 33.015625 6.390625 
Q 39.65625 6.390625 43.53125 10.953125 
Q 47.40625 15.53125 47.40625 23.390625 
Q 47.40625 31.296875 43.53125 35.828125 
Q 39.65625 40.375 33.015625 40.375 
z
M 52.59375 71.296875 
L 52.59375 62.3125 
Q 48.875 64.0625 45.09375 64.984375 
Q 41.3125 65.921875 37.59375 65.921875 
Q 27.828125 65.921875 22.671875 59.328125 
Q 17.53125 52.734375 16.796875 39.40625 
Q 19.671875 43.65625 24.015625 45.921875 
Q 28.375 48.1875 33.59375 48.1875 
Q 44.578125 48.1875 50.953125 41.515625 
Q 57.328125 34.859375 57.328125 23.390625 
Q 57.328125 12.15625 50.6875 5.359375 
Q 44.046875 -1.421875 33.015625 -1.421875 
Q 20.359375 -1.421875 13.671875 8.265625 
Q 6.984375 17.96875 6.984375 36.375 
Q 6.984375 53.65625 15.1875 63.9375 
Q 23.390625 74.21875 37.203125 74.21875 
Q 40.921875 74.21875 44.703125 73.484375 
Q 48.484375 72.75 52.59375 71.296875 
z
" id="DejaVuSans-54"/>
      </defs>
      <g transform="translate(67.096875 594.199219)scale(0.1 -0.1)">
       <use xlink:href="#DejaVuSans-48"/>
       <use x="63.623047" xlink:href="#DejaVuSans-46"/>
       <use x="95.410156" xlink:href="#DejaVuSans-54"/>
      </g>
     </g>
    </g>
    <g id="ytick_12">
     <g id="line2d_29">
      <g>
       <use style="stroke:#000000;stroke-width:0.8;" x="90" xlink:href="#m7dfeb8075e" y="540"/>
      </g>
     </g>
     <g id="text_31">
      <!-- 0.7 -->
      <g transform="translate(67.096875 543.799219)scale(0.1 -0.1)">
       <use xlink:href="#DejaVuSans-48"/>
       <use x="63.623047" xlink:href="#DejaVuSans-46"/>
       <use x="95.410156" xlink:href="#DejaVuSans-55"/>
      </g>
     </g>
    </g>
    <g id="ytick_13">
     <g id="line2d_30">
      <g>
       <use style="stroke:#000000;stroke-width:0.8;" x="90" xlink:href="#m7dfeb8075e" y="489.6"/>
      </g>
     </g>
     <g id="text_32">
      <!-- 0.8 -->
      <defs>
       <path d="M 31.78125 34.625 
Q 24.75 34.625 20.71875 30.859375 
Q 16.703125 27.09375 16.703125 20.515625 
Q 16.703125 13.921875 20.71875 10.15625 
Q 24.75 6.390625 31.78125 6.390625 
Q 38.8125 6.390625 42.859375 10.171875 
Q 46.921875 13.96875 46.921875 20.515625 
Q 46.921875 27.09375 42.890625 30.859375 
Q 38.875 34.625 31.78125 34.625 
z
M 21.921875 38.8125 
Q 15.578125 40.375 12.03125 44.71875 
Q 8.5 49.078125 8.5 55.328125 
Q 8.5 64.0625 14.71875 69.140625 
Q 20.953125 74.21875 31.78125 74.21875 
Q 42.671875 74.21875 48.875 69.140625 
Q 55.078125 64.0625 55.078125 55.328125 
Q 55.078125 49.078125 51.53125 44.71875 
Q 48 40.375 41.703125 38.8125 
Q 48.828125 37.15625 52.796875 32.3125 
Q 56.78125 27.484375 56.78125 20.515625 
Q 56.78125 9.90625 50.3125 4.234375 
Q 43.84375 -1.421875 31.78125 -1.421875 
Q 19.734375 -1.421875 13.25 4.234375 
Q 6.78125 9.90625 6.78125 20.515625 
Q 6.78125 27.484375 10.78125 32.3125 
Q 14.796875 37.15625 21.921875 38.8125 
z
M 18.3125 54.390625 
Q 18.3125 48.734375 21.84375 45.5625 
Q 25.390625 42.390625 31.78125 42.390625 
Q 38.140625 42.390625 41.71875 45.5625 
Q 45.3125 48.734375 45.3125 54.390625 
Q 45.3125 60.0625 41.71875 63.234375 
Q 38.140625 66.40625 31.78125 66.40625 
Q 25.390625 66.40625 21.84375 63.234375 
Q 18.3125 60.0625 18.3125 54.390625 
z
" id="DejaVuSans-56"/>
      </defs>
      <g transform="translate(67.096875 493.399219)scale(0.1 -0.1)">
       <use xlink:href="#DejaVuSans-48"/>
       <use x="63.623047" xlink:href="#DejaVuSans-46"/>
       <use x="95.410156" xlink:href="#DejaVuSans-56"/>
      </g>
     </g>
    </g>
    <g id="ytick_14">
     <g id="line2d_31">
      <g>
       <use style="stroke:#000000;stroke-width:0.8;" x="90" xlink:href="#m7dfeb8075e" y="439.2"/>
      </g>
     </g>
     <g id="text_33">
      <!-- 0.9 -->
      <defs>
       <path d="M 10.984375 1.515625 
L 10.984375 10.5 
Q 14.703125 8.734375 18.5 7.8125 
Q 22.3125 6.890625 25.984375 6.890625 
Q 35.75 6.890625 40.890625 13.453125 
Q 46.046875 20.015625 46.78125 33.40625 
Q 43.953125 29.203125 39.59375 26.953125 
Q 35.25 24.703125 29.984375 24.703125 
Q 19.046875 24.703125 12.671875 31.3125 
Q 6.296875 37.9375 6.296875 49.421875 
Q 6.296875 60.640625 12.9375 67.421875 
Q 19.578125 74.21875 30.609375 74.21875 
Q 43.265625 74.21875 49.921875 64.515625 
Q 56.59375 54.828125 56.59375 36.375 
Q 56.59375 19.140625 48.40625 8.859375 
Q 40.234375 -1.421875 26.421875 -1.421875 
Q 22.703125 -1.421875 18.890625 -0.6875 
Q 15.09375 0.046875 10.984375 1.515625 
z
M 30.609375 32.421875 
Q 37.25 32.421875 41.125 36.953125 
Q 45.015625 41.5 45.015625 49.421875 
Q 45.015625 57.28125 41.125 61.84375 
Q 37.25 66.40625 30.609375 66.40625 
Q 23.96875 66.40625 20.09375 61.84375 
Q 16.21875 57.28125 16.21875 49.421875 
Q 16.21875 41.5 20.09375 36.953125 
Q 23.96875 32.421875 30.609375 32.421875 
z
" id="DejaVuSans-57"/>
      </defs>
      <g transform="translate(67.096875 442.999219)scale(0.1 -0.1)">
       <use xlink:href="#DejaVuSans-48"/>
       <use x="63.623047" xlink:href="#DejaVuSans-46"/>
       <use x="95.410156" xlink:href="#DejaVuSans-57"/>
      </g>
     </g>
    </g>
    <g id="ytick_15">
     <g id="line2d_32">
      <g>
       <use style="stroke:#000000;stroke-width:0.8;" x="90" xlink:href="#m7dfeb8075e" y="388.8"/>
      </g>
     </g>
     <g id="text_34">
      <!-- 1.0 -->
      <g transform="translate(67.096875 392.599219)scale(0.1 -0.1)">
       <use xlink:href="#DejaVuSans-49"/>
       <use x="63.623047" xlink:href="#DejaVuSans-46"/>
       <use x="95.410156" xlink:href="#DejaVuSans-48"/>
      </g>
     </g>
    </g>
    <g id="text_35">
     <!-- Pixel Accuracy -->
     <defs>
      <path d="M 19.671875 64.796875 
L 19.671875 37.40625 
L 32.078125 37.40625 
Q 38.96875 37.40625 42.71875 40.96875 
Q 46.484375 44.53125 46.484375 51.125 
Q 46.484375 57.671875 42.71875 61.234375 
Q 38.96875 64.796875 32.078125 64.796875 
z
M 9.8125 72.90625 
L 32.078125 72.90625 
Q 44.34375 72.90625 50.609375 67.359375 
Q 56.890625 61.8125 56.890625 51.125 
Q 56.890625 40.328125 50.609375 34.8125 
Q 44.34375 29.296875 32.078125 29.296875 
L 19.671875 29.296875 
L 19.671875 0 
L 9.8125 0 
z
" id="DejaVuSans-80"/>
      <path d="M 54.890625 54.6875 
L 35.109375 28.078125 
L 55.90625 0 
L 45.3125 0 
L 29.390625 21.484375 
L 13.484375 0 
L 2.875 0 
L 24.125 28.609375 
L 4.6875 54.6875 
L 15.28125 54.6875 
L 29.78125 35.203125 
L 44.28125 54.6875 
z
" id="DejaVuSans-120"/>
      <path d="M 34.1875 63.1875 
L 20.796875 26.90625 
L 47.609375 26.90625 
z
M 28.609375 72.90625 
L 39.796875 72.90625 
L 67.578125 0 
L 57.328125 0 
L 50.6875 18.703125 
L 17.828125 18.703125 
L 11.1875 0 
L 0.78125 0 
z
" id="DejaVuSans-65"/>
      <path d="M 32.171875 -5.078125 
Q 28.375 -14.84375 24.75 -17.8125 
Q 21.140625 -20.796875 15.09375 -20.796875 
L 7.90625 -20.796875 
L 7.90625 -13.28125 
L 13.1875 -13.28125 
Q 16.890625 -13.28125 18.9375 -11.515625 
Q 21 -9.765625 23.484375 -3.21875 
L 25.09375 0.875 
L 2.984375 54.6875 
L 12.5 54.6875 
L 29.59375 11.921875 
L 46.6875 54.6875 
L 56.203125 54.6875 
z
" id="DejaVuSans-121"/>
     </defs>
     <g transform="translate(61.017187 551.128906)rotate(-90)scale(0.1 -0.1)">
      <use xlink:href="#DejaVuSans-80"/>
      <use x="60.271484" xlink:href="#DejaVuSans-105"/>
      <use x="88.054688" xlink:href="#DejaVuSans-120"/>
      <use x="147.1875" xlink:href="#DejaVuSans-101"/>
      <use x="208.710938" xlink:href="#DejaVuSans-108"/>
      <use x="236.494141" xlink:href="#DejaVuSans-32"/>
      <use x="268.28125" xlink:href="#DejaVuSans-65"/>
      <use x="336.673828" xlink:href="#DejaVuSans-99"/>
      <use x="391.654297" xlink:href="#DejaVuSans-99"/>
      <use x="446.634766" xlink:href="#DejaVuSans-117"/>
      <use x="510.013672" xlink:href="#DejaVuSans-114"/>
      <use x="551.126953" xlink:href="#DejaVuSans-97"/>
      <use x="612.40625" xlink:href="#DejaVuSans-99"/>
      <use x="667.386719" xlink:href="#DejaVuSans-121"/>
     </g>
    </g>
   </g>
   <g id="line2d_33">
    <path clip-path="url(#pd98e0eb23e)" d="M 115.363636 434.824542 
L 284.454545 416.006967 
L 453.545455 418.808764 
L 622.636364 410.051291 
" style="fill:none;stroke:#0000ff;stroke-linecap:square;stroke-width:1.5;"/>
   </g>
   <g id="line2d_34">
    <path clip-path="url(#pd98e0eb23e)" d="M 115.363636 433.483289 
L 284.454545 411.362633 
L 453.545455 456.080641 
L 622.636364 436.12419 
" style="fill:none;stroke:#ff0000;stroke-linecap:square;stroke-width:1.5;"/>
   </g>
   <g id="patch_8">
    <path d="M 90 640.8 
L 90 388.8 
" style="fill:none;stroke:#000000;stroke-linecap:square;stroke-linejoin:miter;stroke-width:0.8;"/>
   </g>
   <g id="patch_9">
    <path d="M 648 640.8 
L 648 388.8 
" style="fill:none;stroke:#000000;stroke-linecap:square;stroke-linejoin:miter;stroke-width:0.8;"/>
   </g>
   <g id="patch_10">
    <path d="M 90 640.8 
L 648 640.8 
" style="fill:none;stroke:#000000;stroke-linecap:square;stroke-linejoin:miter;stroke-width:0.8;"/>
   </g>
   <g id="patch_11">
    <path d="M 90 388.8 
L 648 388.8 
" style="fill:none;stroke:#000000;stroke-linecap:square;stroke-linejoin:miter;stroke-width:0.8;"/>
   </g>
  </g>
 </g>
 <defs>
  <clipPath id="p8ed4e8fa5b">
   <rect height="252" width="558" x="90" y="86.4"/>
  </clipPath>
  <clipPath id="pd98e0eb23e">
   <rect height="252" width="558" x="90" y="388.8"/>
  </clipPath>
 </defs>
</svg>
